<mxfile host="Electron" agent="Mozilla/5.0 (Windows NT 10.0; Win64; x64) AppleWebKit/537.36 (KHTML, like Gecko) draw.io/24.7.8 Chrome/128.0.6613.36 Electron/32.0.1 Safari/537.36" version="24.7.8" pages="5">
  <diagram name="loginPage" id="T5p7hJUQ6EKKjcvQRga0">
    <mxGraphModel dx="1050" dy="621" grid="1" gridSize="10" guides="1" tooltips="1" connect="1" arrows="1" fold="1" page="1" pageScale="1" pageWidth="850" pageHeight="1100" math="0" shadow="0">
      <root>
        <mxCell id="0" />
        <mxCell id="1" parent="0" />
        <mxCell id="EjZr_h3BZbdBf7nRgWxD-24" style="edgeStyle=orthogonalEdgeStyle;rounded=0;orthogonalLoop=1;jettySize=auto;html=1;" parent="1" source="EjZr_h3BZbdBf7nRgWxD-1" target="EjZr_h3BZbdBf7nRgWxD-2" edge="1">
          <mxGeometry relative="1" as="geometry" />
        </mxCell>
        <mxCell id="EjZr_h3BZbdBf7nRgWxD-1" value="Begin Dăng Nhập" style="ellipse;whiteSpace=wrap;html=1;aspect=fixed;" parent="1" vertex="1">
          <mxGeometry x="360" y="10" width="80" height="80" as="geometry" />
        </mxCell>
        <mxCell id="EjZr_h3BZbdBf7nRgWxD-27" value="" style="edgeStyle=orthogonalEdgeStyle;rounded=0;orthogonalLoop=1;jettySize=auto;html=1;" parent="1" source="EjZr_h3BZbdBf7nRgWxD-2" target="EjZr_h3BZbdBf7nRgWxD-3" edge="1">
          <mxGeometry relative="1" as="geometry" />
        </mxCell>
        <mxCell id="EjZr_h3BZbdBf7nRgWxD-2" value="Yêu cầu nhập&lt;div&gt;Email&lt;/div&gt;&lt;div&gt;Mật Khẩu&lt;/div&gt;" style="shape=parallelogram;perimeter=parallelogramPerimeter;whiteSpace=wrap;html=1;fixedSize=1;" parent="1" vertex="1">
          <mxGeometry x="340" y="160" width="120" height="60" as="geometry" />
        </mxCell>
        <mxCell id="EjZr_h3BZbdBf7nRgWxD-6" value="" style="edgeStyle=orthogonalEdgeStyle;rounded=0;orthogonalLoop=1;jettySize=auto;html=1;entryX=0.511;entryY=0.75;entryDx=0;entryDy=0;entryPerimeter=0;" parent="1" target="EjZr_h3BZbdBf7nRgWxD-11" edge="1">
          <mxGeometry relative="1" as="geometry">
            <mxPoint x="300.032463768116" y="339.1734782608696" as="sourcePoint" />
            <mxPoint x="119.96" y="339.13" as="targetPoint" />
            <Array as="points">
              <mxPoint x="200" y="339" />
              <mxPoint x="200" y="190" />
            </Array>
          </mxGeometry>
        </mxCell>
        <mxCell id="u9cf6HsrwvgD4SUgkyQs-2" value="" style="edgeStyle=orthogonalEdgeStyle;rounded=0;orthogonalLoop=1;jettySize=auto;html=1;" parent="1" source="EjZr_h3BZbdBf7nRgWxD-3" edge="1">
          <mxGeometry relative="1" as="geometry">
            <mxPoint x="399.94117647058806" y="500" as="targetPoint" />
            <Array as="points">
              <mxPoint x="400" y="480" />
              <mxPoint x="400" y="480" />
            </Array>
          </mxGeometry>
        </mxCell>
        <mxCell id="EjZr_h3BZbdBf7nRgWxD-3" value="Email == email_db&lt;div&gt;password == password&lt;/div&gt;" style="rhombus;whiteSpace=wrap;html=1;" parent="1" vertex="1">
          <mxGeometry x="300" y="280" width="200" height="120" as="geometry" />
        </mxCell>
        <mxCell id="EjZr_h3BZbdBf7nRgWxD-32" value="" style="edgeStyle=orthogonalEdgeStyle;rounded=0;orthogonalLoop=1;jettySize=auto;html=1;" parent="1" source="EjZr_h3BZbdBf7nRgWxD-11" target="EjZr_h3BZbdBf7nRgWxD-31" edge="1">
          <mxGeometry relative="1" as="geometry" />
        </mxCell>
        <mxCell id="EjZr_h3BZbdBf7nRgWxD-11" value="" style="shape=waypoint;sketch=0;size=6;pointerEvents=1;points=[];fillColor=default;resizable=0;rotatable=0;perimeter=centerPerimeter;snapToPoint=1;" parent="1" vertex="1">
          <mxGeometry x="190" y="180" width="20" height="20" as="geometry" />
        </mxCell>
        <mxCell id="EjZr_h3BZbdBf7nRgWxD-13" value="" style="shape=waypoint;sketch=0;size=6;pointerEvents=1;points=[];fillColor=default;resizable=0;rotatable=0;perimeter=centerPerimeter;snapToPoint=1;" parent="1" vertex="1">
          <mxGeometry x="340" y="180" width="20" height="20" as="geometry" />
        </mxCell>
        <mxCell id="EjZr_h3BZbdBf7nRgWxD-15" value="Sai" style="text;html=1;align=center;verticalAlign=middle;resizable=0;points=[];autosize=1;strokeColor=none;fillColor=none;" parent="1" vertex="1">
          <mxGeometry x="190" y="310" width="40" height="30" as="geometry" />
        </mxCell>
        <mxCell id="EjZr_h3BZbdBf7nRgWxD-19" value="" style="shape=waypoint;sketch=0;size=6;pointerEvents=1;points=[];fillColor=default;resizable=0;rotatable=0;perimeter=centerPerimeter;snapToPoint=1;" parent="1" vertex="1">
          <mxGeometry x="390" y="490" width="20" height="20" as="geometry" />
        </mxCell>
        <mxCell id="EjZr_h3BZbdBf7nRgWxD-28" style="edgeStyle=orthogonalEdgeStyle;rounded=0;orthogonalLoop=1;jettySize=auto;html=1;entryX=0.685;entryY=0.276;entryDx=0;entryDy=0;entryPerimeter=0;" parent="1" source="EjZr_h3BZbdBf7nRgWxD-11" target="EjZr_h3BZbdBf7nRgWxD-11" edge="1">
          <mxGeometry relative="1" as="geometry" />
        </mxCell>
        <mxCell id="EjZr_h3BZbdBf7nRgWxD-30" value="Đúng" style="text;html=1;align=center;verticalAlign=middle;resizable=0;points=[];autosize=1;strokeColor=none;fillColor=none;" parent="1" vertex="1">
          <mxGeometry x="410" y="450" width="50" height="30" as="geometry" />
        </mxCell>
        <mxCell id="EjZr_h3BZbdBf7nRgWxD-31" value="" style="shape=waypoint;sketch=0;size=6;pointerEvents=1;points=[];fillColor=default;resizable=0;rotatable=0;perimeter=centerPerimeter;snapToPoint=1;" parent="1" vertex="1">
          <mxGeometry x="340" y="180" width="20" height="20" as="geometry" />
        </mxCell>
        <mxCell id="u9cf6HsrwvgD4SUgkyQs-5" value="" style="edgeStyle=orthogonalEdgeStyle;rounded=0;orthogonalLoop=1;jettySize=auto;html=1;" parent="1" source="u9cf6HsrwvgD4SUgkyQs-3" target="u9cf6HsrwvgD4SUgkyQs-4" edge="1">
          <mxGeometry relative="1" as="geometry" />
        </mxCell>
        <mxCell id="u9cf6HsrwvgD4SUgkyQs-21" value="" style="edgeStyle=orthogonalEdgeStyle;rounded=0;orthogonalLoop=1;jettySize=auto;html=1;" parent="1" source="u9cf6HsrwvgD4SUgkyQs-3" target="u9cf6HsrwvgD4SUgkyQs-20" edge="1">
          <mxGeometry relative="1" as="geometry">
            <Array as="points">
              <mxPoint x="170" y="570" />
            </Array>
          </mxGeometry>
        </mxCell>
        <mxCell id="u9cf6HsrwvgD4SUgkyQs-3" value="Quyền hạn == admin&lt;div&gt;&lt;br&gt;&lt;/div&gt;" style="rhombus;whiteSpace=wrap;html=1;" parent="1" vertex="1">
          <mxGeometry x="305" y="500" width="195" height="140" as="geometry" />
        </mxCell>
        <mxCell id="u9cf6HsrwvgD4SUgkyQs-4" value="" style="shape=waypoint;sketch=0;size=6;pointerEvents=1;points=[];fillColor=default;resizable=0;rotatable=0;perimeter=centerPerimeter;snapToPoint=1;" parent="1" vertex="1">
          <mxGeometry x="670" y="650" width="20" height="20" as="geometry" />
        </mxCell>
        <mxCell id="u9cf6HsrwvgD4SUgkyQs-6" value="Trang quản trị" style="ellipse;whiteSpace=wrap;html=1;aspect=fixed;" parent="1" vertex="1">
          <mxGeometry x="640" y="660" width="80" height="80" as="geometry" />
        </mxCell>
        <mxCell id="u9cf6HsrwvgD4SUgkyQs-7" value="Đúng" style="text;html=1;align=center;verticalAlign=middle;resizable=0;points=[];autosize=1;strokeColor=none;fillColor=none;" parent="1" vertex="1">
          <mxGeometry x="545" y="528" width="50" height="30" as="geometry" />
        </mxCell>
        <mxCell id="u9cf6HsrwvgD4SUgkyQs-16" value="" style="edgeStyle=orthogonalEdgeStyle;rounded=0;orthogonalLoop=1;jettySize=auto;html=1;" parent="1" source="u9cf6HsrwvgD4SUgkyQs-12" edge="1">
          <mxGeometry relative="1" as="geometry">
            <mxPoint x="360" y="750" as="targetPoint" />
            <Array as="points">
              <mxPoint x="360" y="680" />
            </Array>
          </mxGeometry>
        </mxCell>
        <mxCell id="u9cf6HsrwvgD4SUgkyQs-23" value="" style="edgeStyle=orthogonalEdgeStyle;rounded=0;orthogonalLoop=1;jettySize=auto;html=1;" parent="1" source="u9cf6HsrwvgD4SUgkyQs-12" target="u9cf6HsrwvgD4SUgkyQs-19" edge="1">
          <mxGeometry relative="1" as="geometry" />
        </mxCell>
        <mxCell id="u9cf6HsrwvgD4SUgkyQs-12" value="Quền hạn == Tác giả" style="rhombus;whiteSpace=wrap;html=1;" parent="1" vertex="1">
          <mxGeometry x="70" y="640" width="200" height="80" as="geometry" />
        </mxCell>
        <mxCell id="u9cf6HsrwvgD4SUgkyQs-14" value="Trang viết blog" style="ellipse;whiteSpace=wrap;html=1;aspect=fixed;" parent="1" vertex="1">
          <mxGeometry x="320" y="748" width="80" height="80" as="geometry" />
        </mxCell>
        <mxCell id="u9cf6HsrwvgD4SUgkyQs-17" value="Đúng" style="text;html=1;align=center;verticalAlign=middle;resizable=0;points=[];autosize=1;strokeColor=none;fillColor=none;" parent="1" vertex="1">
          <mxGeometry x="290" y="645" width="50" height="30" as="geometry" />
        </mxCell>
        <mxCell id="u9cf6HsrwvgD4SUgkyQs-19" value="Trang User" style="ellipse;whiteSpace=wrap;html=1;aspect=fixed;" parent="1" vertex="1">
          <mxGeometry x="130" y="830" width="80" height="80" as="geometry" />
        </mxCell>
        <mxCell id="u9cf6HsrwvgD4SUgkyQs-20" value="" style="shape=waypoint;sketch=0;size=6;pointerEvents=1;points=[];fillColor=default;resizable=0;rotatable=0;perimeter=centerPerimeter;snapToPoint=1;" parent="1" vertex="1">
          <mxGeometry x="160" y="630" width="20" height="20" as="geometry" />
        </mxCell>
        <mxCell id="u9cf6HsrwvgD4SUgkyQs-22" value="Sai" style="text;html=1;align=center;verticalAlign=middle;resizable=0;points=[];autosize=1;strokeColor=none;fillColor=none;" parent="1" vertex="1">
          <mxGeometry x="200" y="528" width="40" height="30" as="geometry" />
        </mxCell>
        <mxCell id="u9cf6HsrwvgD4SUgkyQs-24" value="Sai" style="text;html=1;align=center;verticalAlign=middle;resizable=0;points=[];autosize=1;strokeColor=none;fillColor=none;" parent="1" vertex="1">
          <mxGeometry x="170" y="748" width="40" height="30" as="geometry" />
        </mxCell>
      </root>
    </mxGraphModel>
  </diagram>
  <diagram id="ZPRZQFNLniohtHw56rSH" name="signupPage">
    <mxGraphModel dx="1050" dy="621" grid="1" gridSize="10" guides="1" tooltips="1" connect="1" arrows="1" fold="1" page="1" pageScale="1" pageWidth="850" pageHeight="1100" math="0" shadow="0">
      <root>
        <mxCell id="0" />
        <mxCell id="1" parent="0" />
        <mxCell id="i5nSifTxp4wtqOcQHXzH-3" value="" style="edgeStyle=orthogonalEdgeStyle;rounded=0;orthogonalLoop=1;jettySize=auto;html=1;" parent="1" source="i5nSifTxp4wtqOcQHXzH-1" target="i5nSifTxp4wtqOcQHXzH-2" edge="1">
          <mxGeometry relative="1" as="geometry" />
        </mxCell>
        <mxCell id="i5nSifTxp4wtqOcQHXzH-1" value="Đăng ký" style="ellipse;whiteSpace=wrap;html=1;aspect=fixed;" parent="1" vertex="1">
          <mxGeometry x="360" y="40" width="80" height="80" as="geometry" />
        </mxCell>
        <mxCell id="i5nSifTxp4wtqOcQHXzH-5" value="" style="edgeStyle=orthogonalEdgeStyle;rounded=0;orthogonalLoop=1;jettySize=auto;html=1;" parent="1" source="i5nSifTxp4wtqOcQHXzH-2" target="i5nSifTxp4wtqOcQHXzH-4" edge="1">
          <mxGeometry relative="1" as="geometry" />
        </mxCell>
        <mxCell id="i5nSifTxp4wtqOcQHXzH-2" value="Yêu cầu nhập&lt;div&gt;Tên User&lt;/div&gt;&lt;div&gt;email&lt;/div&gt;&lt;div&gt;Password&lt;/div&gt;" style="shape=parallelogram;perimeter=parallelogramPerimeter;whiteSpace=wrap;html=1;fixedSize=1;" parent="1" vertex="1">
          <mxGeometry x="340" y="210" width="120" height="60" as="geometry" />
        </mxCell>
        <mxCell id="i5nSifTxp4wtqOcQHXzH-9" value="" style="edgeStyle=orthogonalEdgeStyle;rounded=0;orthogonalLoop=1;jettySize=auto;html=1;" parent="1" source="i5nSifTxp4wtqOcQHXzH-4" target="i5nSifTxp4wtqOcQHXzH-8" edge="1">
          <mxGeometry relative="1" as="geometry" />
        </mxCell>
        <mxCell id="i5nSifTxp4wtqOcQHXzH-19" value="" style="edgeStyle=orthogonalEdgeStyle;rounded=0;orthogonalLoop=1;jettySize=auto;html=1;" parent="1" source="i5nSifTxp4wtqOcQHXzH-4" target="i5nSifTxp4wtqOcQHXzH-18" edge="1">
          <mxGeometry relative="1" as="geometry" />
        </mxCell>
        <mxCell id="i5nSifTxp4wtqOcQHXzH-4" value="emai đã tồn tại" style="rhombus;whiteSpace=wrap;html=1;" parent="1" vertex="1">
          <mxGeometry x="310" y="340" width="180" height="80" as="geometry" />
        </mxCell>
        <mxCell id="i5nSifTxp4wtqOcQHXzH-10" style="edgeStyle=orthogonalEdgeStyle;rounded=0;orthogonalLoop=1;jettySize=auto;html=1;" parent="1" source="i5nSifTxp4wtqOcQHXzH-8" edge="1">
          <mxGeometry relative="1" as="geometry">
            <mxPoint x="600" y="240" as="targetPoint" />
          </mxGeometry>
        </mxCell>
        <mxCell id="i5nSifTxp4wtqOcQHXzH-14" value="" style="edgeStyle=orthogonalEdgeStyle;rounded=0;orthogonalLoop=1;jettySize=auto;html=1;" parent="1" source="i5nSifTxp4wtqOcQHXzH-8" target="i5nSifTxp4wtqOcQHXzH-13" edge="1">
          <mxGeometry relative="1" as="geometry" />
        </mxCell>
        <mxCell id="i5nSifTxp4wtqOcQHXzH-8" value="" style="shape=waypoint;sketch=0;size=6;pointerEvents=1;points=[];fillColor=default;resizable=0;rotatable=0;perimeter=centerPerimeter;snapToPoint=1;" parent="1" vertex="1">
          <mxGeometry x="590" y="230" width="20" height="20" as="geometry" />
        </mxCell>
        <mxCell id="i5nSifTxp4wtqOcQHXzH-13" value="" style="shape=waypoint;sketch=0;size=6;pointerEvents=1;points=[];fillColor=default;resizable=0;rotatable=0;perimeter=centerPerimeter;snapToPoint=1;" parent="1" vertex="1">
          <mxGeometry x="440" y="230" width="20" height="20" as="geometry" />
        </mxCell>
        <mxCell id="i5nSifTxp4wtqOcQHXzH-17" value="Đúng" style="text;html=1;align=center;verticalAlign=middle;resizable=0;points=[];autosize=1;strokeColor=none;fillColor=none;" parent="1" vertex="1">
          <mxGeometry x="520" y="350" width="50" height="30" as="geometry" />
        </mxCell>
        <mxCell id="i5nSifTxp4wtqOcQHXzH-21" value="" style="edgeStyle=orthogonalEdgeStyle;rounded=0;orthogonalLoop=1;jettySize=auto;html=1;" parent="1" source="i5nSifTxp4wtqOcQHXzH-18" target="i5nSifTxp4wtqOcQHXzH-20" edge="1">
          <mxGeometry relative="1" as="geometry" />
        </mxCell>
        <mxCell id="i5nSifTxp4wtqOcQHXzH-24" value="" style="edgeStyle=orthogonalEdgeStyle;rounded=0;orthogonalLoop=1;jettySize=auto;html=1;" parent="1" source="i5nSifTxp4wtqOcQHXzH-18" target="i5nSifTxp4wtqOcQHXzH-23" edge="1">
          <mxGeometry relative="1" as="geometry" />
        </mxCell>
        <mxCell id="i5nSifTxp4wtqOcQHXzH-18" value="Kiểm tra tính hợp lệ" style="whiteSpace=wrap;html=1;" parent="1" vertex="1">
          <mxGeometry x="340" y="510" width="120" height="60" as="geometry" />
        </mxCell>
        <mxCell id="i5nSifTxp4wtqOcQHXzH-20" value="Trang User" style="ellipse;whiteSpace=wrap;html=1;" parent="1" vertex="1">
          <mxGeometry x="360" y="640" width="80" height="80" as="geometry" />
        </mxCell>
        <mxCell id="i5nSifTxp4wtqOcQHXzH-22" value="Đúng" style="text;html=1;align=center;verticalAlign=middle;resizable=0;points=[];autosize=1;strokeColor=none;fillColor=none;" parent="1" vertex="1">
          <mxGeometry x="395" y="588" width="50" height="30" as="geometry" />
        </mxCell>
        <mxCell id="i5nSifTxp4wtqOcQHXzH-26" value="" style="edgeStyle=orthogonalEdgeStyle;rounded=0;orthogonalLoop=1;jettySize=auto;html=1;" parent="1" source="i5nSifTxp4wtqOcQHXzH-23" target="i5nSifTxp4wtqOcQHXzH-25" edge="1">
          <mxGeometry relative="1" as="geometry" />
        </mxCell>
        <mxCell id="i5nSifTxp4wtqOcQHXzH-23" value="" style="shape=waypoint;sketch=0;size=6;pointerEvents=1;points=[];fillColor=default;resizable=0;rotatable=0;perimeter=centerPerimeter;snapToPoint=1;" parent="1" vertex="1">
          <mxGeometry x="190" y="230" width="20" height="20" as="geometry" />
        </mxCell>
        <mxCell id="i5nSifTxp4wtqOcQHXzH-28" value="" style="edgeStyle=orthogonalEdgeStyle;rounded=0;orthogonalLoop=1;jettySize=auto;html=1;" parent="1" source="i5nSifTxp4wtqOcQHXzH-25" target="i5nSifTxp4wtqOcQHXzH-27" edge="1">
          <mxGeometry relative="1" as="geometry" />
        </mxCell>
        <mxCell id="i5nSifTxp4wtqOcQHXzH-25" value="" style="shape=waypoint;sketch=0;size=6;pointerEvents=1;points=[];fillColor=default;resizable=0;rotatable=0;perimeter=centerPerimeter;snapToPoint=1;" parent="1" vertex="1">
          <mxGeometry x="340" y="230" width="20" height="20" as="geometry" />
        </mxCell>
        <mxCell id="i5nSifTxp4wtqOcQHXzH-27" value="" style="shape=waypoint;sketch=0;size=6;pointerEvents=1;points=[];fillColor=default;resizable=0;rotatable=0;perimeter=centerPerimeter;snapToPoint=1;" parent="1" vertex="1">
          <mxGeometry x="340" y="230" width="20" height="20" as="geometry" />
        </mxCell>
        <mxCell id="i5nSifTxp4wtqOcQHXzH-29" value="Sai" style="text;html=1;align=center;verticalAlign=middle;resizable=0;points=[];autosize=1;strokeColor=none;fillColor=none;" parent="1" vertex="1">
          <mxGeometry x="240" y="510" width="40" height="30" as="geometry" />
        </mxCell>
        <mxCell id="i5nSifTxp4wtqOcQHXzH-31" value="Sai" style="text;html=1;align=center;verticalAlign=middle;resizable=0;points=[];autosize=1;strokeColor=none;fillColor=none;" parent="1" vertex="1">
          <mxGeometry x="400" y="438" width="40" height="30" as="geometry" />
        </mxCell>
      </root>
    </mxGraphModel>
  </diagram>
  <diagram id="bERQRO1OQ_DO70nkntor" name="UserPage">
    <mxGraphModel dx="2350" dy="887" grid="1" gridSize="10" guides="1" tooltips="1" connect="1" arrows="1" fold="1" page="1" pageScale="1" pageWidth="850" pageHeight="1100" math="0" shadow="0">
      <root>
        <mxCell id="0" />
        <mxCell id="1" parent="0" />
        <mxCell id="uT1juLGMjyFJ3oMo-kvJ-5" style="edgeStyle=orthogonalEdgeStyle;rounded=0;orthogonalLoop=1;jettySize=auto;html=1;exitX=0.5;exitY=1;exitDx=0;exitDy=0;entryX=0.5;entryY=0;entryDx=0;entryDy=0;" edge="1" parent="1" source="_MTyXd_b4tyTAS5jNlcX-1" target="_MTyXd_b4tyTAS5jNlcX-8">
          <mxGeometry relative="1" as="geometry" />
        </mxCell>
        <mxCell id="_MTyXd_b4tyTAS5jNlcX-1" value="Trang User" style="ellipse;whiteSpace=wrap;html=1;aspect=fixed;labelBackgroundColor=none;" parent="1" vertex="1">
          <mxGeometry x="385" y="10" width="80" height="80" as="geometry" />
        </mxCell>
        <mxCell id="_MTyXd_b4tyTAS5jNlcX-14" value="" style="edgeStyle=orthogonalEdgeStyle;rounded=0;orthogonalLoop=1;jettySize=auto;html=1;labelBackgroundColor=none;fontColor=default;" parent="1" source="_MTyXd_b4tyTAS5jNlcX-8" target="_MTyXd_b4tyTAS5jNlcX-13" edge="1">
          <mxGeometry relative="1" as="geometry" />
        </mxCell>
        <mxCell id="_MTyXd_b4tyTAS5jNlcX-30" value="" style="edgeStyle=orthogonalEdgeStyle;rounded=0;orthogonalLoop=1;jettySize=auto;html=1;labelBackgroundColor=none;fontColor=default;" parent="1" source="_MTyXd_b4tyTAS5jNlcX-8" target="_MTyXd_b4tyTAS5jNlcX-29" edge="1">
          <mxGeometry relative="1" as="geometry" />
        </mxCell>
        <mxCell id="_MTyXd_b4tyTAS5jNlcX-37" value="" style="edgeStyle=orthogonalEdgeStyle;rounded=0;orthogonalLoop=1;jettySize=auto;html=1;labelBackgroundColor=none;fontColor=default;" parent="1" source="_MTyXd_b4tyTAS5jNlcX-8" target="_MTyXd_b4tyTAS5jNlcX-36" edge="1">
          <mxGeometry relative="1" as="geometry" />
        </mxCell>
        <mxCell id="nyCwR31oe8qXn2ElLDsS-18" value="" style="edgeStyle=orthogonalEdgeStyle;rounded=0;orthogonalLoop=1;jettySize=auto;html=1;labelBackgroundColor=none;fontColor=default;" parent="1" source="_MTyXd_b4tyTAS5jNlcX-8" target="nyCwR31oe8qXn2ElLDsS-17" edge="1">
          <mxGeometry relative="1" as="geometry" />
        </mxCell>
        <mxCell id="_MTyXd_b4tyTAS5jNlcX-8" value="Chức năng" style="rounded=1;whiteSpace=wrap;html=1;labelBackgroundColor=none;" parent="1" vertex="1">
          <mxGeometry x="365" y="210" width="120" height="60" as="geometry" />
        </mxCell>
        <mxCell id="_MTyXd_b4tyTAS5jNlcX-16" value="" style="edgeStyle=orthogonalEdgeStyle;rounded=0;orthogonalLoop=1;jettySize=auto;html=1;labelBackgroundColor=none;fontColor=default;" parent="1" source="_MTyXd_b4tyTAS5jNlcX-13" target="_MTyXd_b4tyTAS5jNlcX-15" edge="1">
          <mxGeometry relative="1" as="geometry" />
        </mxCell>
        <mxCell id="_MTyXd_b4tyTAS5jNlcX-13" value="Đọc blog" style="rhombus;whiteSpace=wrap;html=1;rounded=1;labelBackgroundColor=none;" parent="1" vertex="1">
          <mxGeometry x="585" y="200" width="80" height="80" as="geometry" />
        </mxCell>
        <mxCell id="VQT11wfM5uG191NPrqc8-8" value="" style="edgeStyle=orthogonalEdgeStyle;rounded=0;orthogonalLoop=1;jettySize=auto;html=1;labelBackgroundColor=none;fontColor=default;" parent="1" source="_MTyXd_b4tyTAS5jNlcX-15" target="VQT11wfM5uG191NPrqc8-7" edge="1">
          <mxGeometry relative="1" as="geometry" />
        </mxCell>
        <mxCell id="_MTyXd_b4tyTAS5jNlcX-15" value="Trang đọc blog" style="ellipse;whiteSpace=wrap;html=1;rounded=1;labelBackgroundColor=none;" parent="1" vertex="1">
          <mxGeometry x="745" y="200" width="80" height="80" as="geometry" />
        </mxCell>
        <mxCell id="_MTyXd_b4tyTAS5jNlcX-32" value="" style="edgeStyle=orthogonalEdgeStyle;rounded=0;orthogonalLoop=1;jettySize=auto;html=1;labelBackgroundColor=none;fontColor=default;" parent="1" source="_MTyXd_b4tyTAS5jNlcX-29" target="_MTyXd_b4tyTAS5jNlcX-31" edge="1">
          <mxGeometry relative="1" as="geometry" />
        </mxCell>
        <mxCell id="_MTyXd_b4tyTAS5jNlcX-29" value="Thể loại" style="rhombus;whiteSpace=wrap;html=1;rounded=1;labelBackgroundColor=none;" parent="1" vertex="1">
          <mxGeometry x="490" y="348" width="80" height="80" as="geometry" />
        </mxCell>
        <mxCell id="_MTyXd_b4tyTAS5jNlcX-31" value="Trang danh sách thể loại" style="ellipse;whiteSpace=wrap;html=1;rounded=1;labelBackgroundColor=none;" parent="1" vertex="1">
          <mxGeometry x="665" y="348" width="80" height="80" as="geometry" />
        </mxCell>
        <mxCell id="_MTyXd_b4tyTAS5jNlcX-33" value="Click" style="text;html=1;align=center;verticalAlign=middle;resizable=0;points=[];autosize=1;strokeColor=none;fillColor=none;labelBackgroundColor=none;" parent="1" vertex="1">
          <mxGeometry x="585" y="360" width="50" height="30" as="geometry" />
        </mxCell>
        <mxCell id="_MTyXd_b4tyTAS5jNlcX-40" value="" style="edgeStyle=orthogonalEdgeStyle;rounded=0;orthogonalLoop=1;jettySize=auto;html=1;labelBackgroundColor=none;fontColor=default;" parent="1" source="_MTyXd_b4tyTAS5jNlcX-36" target="_MTyXd_b4tyTAS5jNlcX-39" edge="1">
          <mxGeometry relative="1" as="geometry" />
        </mxCell>
        <mxCell id="_MTyXd_b4tyTAS5jNlcX-36" value="Tìm kiếm" style="rhombus;whiteSpace=wrap;html=1;rounded=1;labelBackgroundColor=none;" parent="1" vertex="1">
          <mxGeometry x="330" y="348" width="80" height="80" as="geometry" />
        </mxCell>
        <mxCell id="_MTyXd_b4tyTAS5jNlcX-39" value="Trang kết quả tìm kiếm" style="ellipse;whiteSpace=wrap;html=1;rounded=1;labelBackgroundColor=none;" parent="1" vertex="1">
          <mxGeometry x="330" y="490" width="80" height="80" as="geometry" />
        </mxCell>
        <mxCell id="VQT11wfM5uG191NPrqc8-10" value="" style="edgeStyle=orthogonalEdgeStyle;rounded=0;orthogonalLoop=1;jettySize=auto;html=1;labelBackgroundColor=none;fontColor=default;" parent="1" source="VQT11wfM5uG191NPrqc8-7" target="VQT11wfM5uG191NPrqc8-9" edge="1">
          <mxGeometry relative="1" as="geometry" />
        </mxCell>
        <mxCell id="VQT11wfM5uG191NPrqc8-14" value="" style="edgeStyle=orthogonalEdgeStyle;rounded=0;orthogonalLoop=1;jettySize=auto;html=1;labelBackgroundColor=none;fontColor=default;" parent="1" source="VQT11wfM5uG191NPrqc8-7" target="VQT11wfM5uG191NPrqc8-13" edge="1">
          <mxGeometry relative="1" as="geometry" />
        </mxCell>
        <mxCell id="VQT11wfM5uG191NPrqc8-7" value="Chức năng:&lt;div&gt;bình luận, Like&lt;/div&gt;" style="whiteSpace=wrap;html=1;rounded=1;labelBackgroundColor=none;" parent="1" vertex="1">
          <mxGeometry x="885" y="210" width="120" height="60" as="geometry" />
        </mxCell>
        <mxCell id="VQT11wfM5uG191NPrqc8-12" value="" style="edgeStyle=orthogonalEdgeStyle;rounded=0;orthogonalLoop=1;jettySize=auto;html=1;labelBackgroundColor=none;fontColor=default;" parent="1" source="VQT11wfM5uG191NPrqc8-9" target="VQT11wfM5uG191NPrqc8-11" edge="1">
          <mxGeometry relative="1" as="geometry" />
        </mxCell>
        <mxCell id="9_NTSiwrM5fmcVJu3MdA-14" style="edgeStyle=orthogonalEdgeStyle;rounded=0;orthogonalLoop=1;jettySize=auto;html=1;exitX=1;exitY=0.5;exitDx=0;exitDy=0;entryX=0.5;entryY=0;entryDx=0;entryDy=0;labelBackgroundColor=none;fontColor=default;" parent="1" source="VQT11wfM5uG191NPrqc8-9" target="9_NTSiwrM5fmcVJu3MdA-6" edge="1">
          <mxGeometry relative="1" as="geometry">
            <Array as="points">
              <mxPoint x="1170" y="380" />
            </Array>
          </mxGeometry>
        </mxCell>
        <mxCell id="VQT11wfM5uG191NPrqc8-9" value="Bình luận" style="rhombus;whiteSpace=wrap;html=1;rounded=1;labelBackgroundColor=none;" parent="1" vertex="1">
          <mxGeometry x="905" y="340" width="80" height="80" as="geometry" />
        </mxCell>
        <mxCell id="VQT11wfM5uG191NPrqc8-11" value="Mở phần bình luận" style="ellipse;whiteSpace=wrap;html=1;rounded=1;labelBackgroundColor=none;" parent="1" vertex="1">
          <mxGeometry x="905" y="550" width="80" height="80" as="geometry" />
        </mxCell>
        <mxCell id="9_NTSiwrM5fmcVJu3MdA-7" value="" style="edgeStyle=orthogonalEdgeStyle;rounded=0;orthogonalLoop=1;jettySize=auto;html=1;labelBackgroundColor=none;fontColor=default;" parent="1" source="VQT11wfM5uG191NPrqc8-13" target="9_NTSiwrM5fmcVJu3MdA-6" edge="1">
          <mxGeometry relative="1" as="geometry" />
        </mxCell>
        <mxCell id="VQT11wfM5uG191NPrqc8-13" value="Like" style="rhombus;whiteSpace=wrap;html=1;rounded=1;labelBackgroundColor=none;" parent="1" vertex="1">
          <mxGeometry x="1080" y="200" width="80" height="80" as="geometry" />
        </mxCell>
        <mxCell id="VQT11wfM5uG191NPrqc8-15" value="Like, Unlike" style="ellipse;whiteSpace=wrap;html=1;rounded=1;labelBackgroundColor=none;" parent="1" vertex="1">
          <mxGeometry x="1070" y="560" width="80" height="80" as="geometry" />
        </mxCell>
        <mxCell id="9_NTSiwrM5fmcVJu3MdA-11" value="" style="edgeStyle=orthogonalEdgeStyle;rounded=0;orthogonalLoop=1;jettySize=auto;html=1;labelBackgroundColor=none;fontColor=default;" parent="1" source="9_NTSiwrM5fmcVJu3MdA-6" target="9_NTSiwrM5fmcVJu3MdA-10" edge="1">
          <mxGeometry relative="1" as="geometry" />
        </mxCell>
        <mxCell id="9_NTSiwrM5fmcVJu3MdA-15" style="edgeStyle=orthogonalEdgeStyle;rounded=0;orthogonalLoop=1;jettySize=auto;html=1;exitX=0;exitY=0.5;exitDx=0;exitDy=0;entryX=0.5;entryY=0;entryDx=0;entryDy=0;labelBackgroundColor=none;fontColor=default;" parent="1" source="9_NTSiwrM5fmcVJu3MdA-6" target="VQT11wfM5uG191NPrqc8-11" edge="1">
          <mxGeometry relative="1" as="geometry" />
        </mxCell>
        <mxCell id="l7B9THinjWUIBC5nZGrC-1" style="edgeStyle=orthogonalEdgeStyle;rounded=0;orthogonalLoop=1;jettySize=auto;html=1;exitX=0;exitY=0.5;exitDx=0;exitDy=0;entryX=0.5;entryY=0;entryDx=0;entryDy=0;labelBackgroundColor=none;fontColor=default;" edge="1" parent="1" source="9_NTSiwrM5fmcVJu3MdA-6" target="VQT11wfM5uG191NPrqc8-15">
          <mxGeometry relative="1" as="geometry" />
        </mxCell>
        <mxCell id="9_NTSiwrM5fmcVJu3MdA-6" value="Đăng nhập" style="rhombus;whiteSpace=wrap;html=1;rounded=1;labelBackgroundColor=none;" parent="1" vertex="1">
          <mxGeometry x="1130" y="395" width="80" height="80" as="geometry" />
        </mxCell>
        <mxCell id="9_NTSiwrM5fmcVJu3MdA-9" value="Đúng" style="text;html=1;align=center;verticalAlign=middle;resizable=0;points=[];autosize=1;strokeColor=none;fillColor=none;labelBackgroundColor=none;" parent="1" vertex="1">
          <mxGeometry x="1080" y="408" width="50" height="30" as="geometry" />
        </mxCell>
        <mxCell id="9_NTSiwrM5fmcVJu3MdA-10" value="Trang đăng nhập" style="ellipse;whiteSpace=wrap;html=1;rounded=1;labelBackgroundColor=none;" parent="1" vertex="1">
          <mxGeometry x="1235" y="560" width="80" height="80" as="geometry" />
        </mxCell>
        <mxCell id="9_NTSiwrM5fmcVJu3MdA-12" value="Sai" style="text;html=1;align=center;verticalAlign=middle;resizable=0;points=[];autosize=1;strokeColor=none;fillColor=none;labelBackgroundColor=none;" parent="1" vertex="1">
          <mxGeometry x="1220" y="408" width="40" height="30" as="geometry" />
        </mxCell>
        <mxCell id="nyCwR31oe8qXn2ElLDsS-2" value="" style="edgeStyle=orthogonalEdgeStyle;rounded=0;orthogonalLoop=1;jettySize=auto;html=1;labelBackgroundColor=none;fontColor=default;" parent="1" source="nyCwR31oe8qXn2ElLDsS-4" target="nyCwR31oe8qXn2ElLDsS-5" edge="1">
          <mxGeometry relative="1" as="geometry" />
        </mxCell>
        <mxCell id="nyCwR31oe8qXn2ElLDsS-3" value="" style="edgeStyle=orthogonalEdgeStyle;rounded=0;orthogonalLoop=1;jettySize=auto;html=1;labelBackgroundColor=none;fontColor=default;" parent="1" source="nyCwR31oe8qXn2ElLDsS-4" target="nyCwR31oe8qXn2ElLDsS-8" edge="1">
          <mxGeometry relative="1" as="geometry" />
        </mxCell>
        <mxCell id="nyCwR31oe8qXn2ElLDsS-4" value="Tài khoản tác giả" style="rhombus;whiteSpace=wrap;html=1;rounded=1;labelBackgroundColor=none;" parent="1" vertex="1">
          <mxGeometry x="-180" y="199" width="120" height="80" as="geometry" />
        </mxCell>
        <mxCell id="nyCwR31oe8qXn2ElLDsS-5" value="Trang viết Blog" style="ellipse;whiteSpace=wrap;html=1;rounded=1;labelBackgroundColor=none;" parent="1" vertex="1">
          <mxGeometry x="-325" y="199" width="80" height="80" as="geometry" />
        </mxCell>
        <mxCell id="nyCwR31oe8qXn2ElLDsS-6" value="Đúng" style="text;html=1;align=center;verticalAlign=middle;resizable=0;points=[];autosize=1;strokeColor=none;fillColor=none;labelBackgroundColor=none;" parent="1" vertex="1">
          <mxGeometry x="-235" y="209" width="50" height="30" as="geometry" />
        </mxCell>
        <mxCell id="nyCwR31oe8qXn2ElLDsS-7" value="" style="edgeStyle=orthogonalEdgeStyle;rounded=0;orthogonalLoop=1;jettySize=auto;html=1;labelBackgroundColor=none;fontColor=default;" parent="1" source="nyCwR31oe8qXn2ElLDsS-8" edge="1">
          <mxGeometry relative="1" as="geometry">
            <mxPoint x="-130" y="540" as="targetPoint" />
          </mxGeometry>
        </mxCell>
        <mxCell id="nyCwR31oe8qXn2ElLDsS-8" value="Trang Đăng ký làm tác giả" style="ellipse;whiteSpace=wrap;html=1;rounded=1;labelBackgroundColor=none;" parent="1" vertex="1">
          <mxGeometry x="-165" y="347" width="80" height="80" as="geometry" />
        </mxCell>
        <mxCell id="nyCwR31oe8qXn2ElLDsS-9" value="Sai" style="text;html=1;align=center;verticalAlign=middle;resizable=0;points=[];autosize=1;strokeColor=none;fillColor=none;labelBackgroundColor=none;" parent="1" vertex="1">
          <mxGeometry x="-125" y="299" width="40" height="30" as="geometry" />
        </mxCell>
        <mxCell id="nyCwR31oe8qXn2ElLDsS-39" value="" style="edgeStyle=orthogonalEdgeStyle;rounded=0;orthogonalLoop=1;jettySize=auto;html=1;labelBackgroundColor=none;fontColor=default;" parent="1" target="nyCwR31oe8qXn2ElLDsS-38" edge="1">
          <mxGeometry relative="1" as="geometry">
            <mxPoint x="-190" y="570" as="sourcePoint" />
          </mxGeometry>
        </mxCell>
        <mxCell id="nyCwR31oe8qXn2ElLDsS-12" style="edgeStyle=orthogonalEdgeStyle;rounded=0;orthogonalLoop=1;jettySize=auto;html=1;exitX=0.5;exitY=0;exitDx=0;exitDy=0;entryX=0;entryY=0.5;entryDx=0;entryDy=0;labelBackgroundColor=none;fontColor=default;" parent="1" source="nyCwR31oe8qXn2ElLDsS-14" target="nyCwR31oe8qXn2ElLDsS-5" edge="1">
          <mxGeometry relative="1" as="geometry" />
        </mxCell>
        <mxCell id="nyCwR31oe8qXn2ElLDsS-13" style="edgeStyle=orthogonalEdgeStyle;rounded=0;orthogonalLoop=1;jettySize=auto;html=1;exitX=1;exitY=0.5;exitDx=0;exitDy=0;entryX=0.5;entryY=0;entryDx=0;entryDy=0;labelBackgroundColor=none;fontColor=default;" parent="1" source="nyCwR31oe8qXn2ElLDsS-14" edge="1">
          <mxGeometry relative="1" as="geometry">
            <mxPoint x="-130" y="540" as="targetPoint" />
          </mxGeometry>
        </mxCell>
        <mxCell id="nyCwR31oe8qXn2ElLDsS-14" value="Nghệ danh chư tồn tại&lt;div&gt;Số điện thoại chưa tồn tại&lt;/div&gt;" style="rhombus;whiteSpace=wrap;html=1;rounded=1;labelBackgroundColor=none;" parent="1" vertex="1">
          <mxGeometry x="-510" y="409" width="250" height="88" as="geometry" />
        </mxCell>
        <mxCell id="nyCwR31oe8qXn2ElLDsS-15" value="Đúng" style="text;html=1;align=center;verticalAlign=middle;resizable=0;points=[];autosize=1;strokeColor=none;fillColor=none;labelBackgroundColor=none;" parent="1" vertex="1">
          <mxGeometry x="-395" y="357" width="50" height="30" as="geometry" />
        </mxCell>
        <mxCell id="nyCwR31oe8qXn2ElLDsS-16" value="Sai" style="text;html=1;align=center;verticalAlign=middle;resizable=0;points=[];autosize=1;strokeColor=none;fillColor=none;labelBackgroundColor=none;" parent="1" vertex="1">
          <mxGeometry x="-230" y="419" width="40" height="30" as="geometry" />
        </mxCell>
        <mxCell id="nyCwR31oe8qXn2ElLDsS-26" value="" style="edgeStyle=orthogonalEdgeStyle;rounded=0;orthogonalLoop=1;jettySize=auto;html=1;labelBackgroundColor=none;fontColor=default;" parent="1" source="nyCwR31oe8qXn2ElLDsS-17" target="nyCwR31oe8qXn2ElLDsS-25" edge="1">
          <mxGeometry relative="1" as="geometry" />
        </mxCell>
        <mxCell id="nyCwR31oe8qXn2ElLDsS-17" value="Đăng blog" style="rhombus;whiteSpace=wrap;html=1;rounded=1;labelBackgroundColor=none;" parent="1" vertex="1">
          <mxGeometry x="185" y="200" width="80" height="80" as="geometry" />
        </mxCell>
        <mxCell id="nyCwR31oe8qXn2ElLDsS-27" value="" style="edgeStyle=orthogonalEdgeStyle;rounded=0;orthogonalLoop=1;jettySize=auto;html=1;labelBackgroundColor=none;fontColor=default;" parent="1" source="nyCwR31oe8qXn2ElLDsS-25" target="nyCwR31oe8qXn2ElLDsS-4" edge="1">
          <mxGeometry relative="1" as="geometry" />
        </mxCell>
        <mxCell id="nyCwR31oe8qXn2ElLDsS-31" value="" style="edgeStyle=orthogonalEdgeStyle;rounded=0;orthogonalLoop=1;jettySize=auto;html=1;labelBackgroundColor=none;fontColor=default;" parent="1" source="nyCwR31oe8qXn2ElLDsS-25" target="nyCwR31oe8qXn2ElLDsS-30" edge="1">
          <mxGeometry relative="1" as="geometry" />
        </mxCell>
        <mxCell id="nyCwR31oe8qXn2ElLDsS-25" value="Đăng nhập" style="rhombus;whiteSpace=wrap;html=1;rounded=1;labelBackgroundColor=none;" parent="1" vertex="1">
          <mxGeometry x="30" y="200" width="80" height="80" as="geometry" />
        </mxCell>
        <mxCell id="nyCwR31oe8qXn2ElLDsS-29" value="Đúng" style="text;html=1;align=center;verticalAlign=middle;resizable=0;points=[];autosize=1;strokeColor=none;fillColor=none;labelBackgroundColor=none;" parent="1" vertex="1">
          <mxGeometry x="-40" y="209" width="50" height="30" as="geometry" />
        </mxCell>
        <mxCell id="nyCwR31oe8qXn2ElLDsS-30" value="Trang đăng nhập" style="ellipse;whiteSpace=wrap;html=1;rounded=1;labelBackgroundColor=none;" parent="1" vertex="1">
          <mxGeometry x="30" y="360" width="80" height="80" as="geometry" />
        </mxCell>
        <mxCell id="nyCwR31oe8qXn2ElLDsS-32" value="Sai" style="text;html=1;align=center;verticalAlign=middle;resizable=0;points=[];autosize=1;strokeColor=none;fillColor=none;labelBackgroundColor=none;" parent="1" vertex="1">
          <mxGeometry x="70" y="298" width="40" height="30" as="geometry" />
        </mxCell>
        <mxCell id="nyCwR31oe8qXn2ElLDsS-40" style="edgeStyle=orthogonalEdgeStyle;rounded=0;orthogonalLoop=1;jettySize=auto;html=1;exitX=0;exitY=0.5;exitDx=0;exitDy=0;entryX=0.5;entryY=1;entryDx=0;entryDy=0;labelBackgroundColor=none;fontColor=default;" parent="1" source="nyCwR31oe8qXn2ElLDsS-38" target="nyCwR31oe8qXn2ElLDsS-14" edge="1">
          <mxGeometry relative="1" as="geometry" />
        </mxCell>
        <mxCell id="nyCwR31oe8qXn2ElLDsS-38" value="Kiểm tra tính hợp lệ" style="rounded=1;whiteSpace=wrap;html=1;labelBackgroundColor=none;" parent="1" vertex="1">
          <mxGeometry x="-365" y="540" width="120" height="60" as="geometry" />
        </mxCell>
        <mxCell id="nyCwR31oe8qXn2ElLDsS-42" value="&#xa;&lt;span style=&quot;color: rgb(240, 240, 240); font-family: Helvetica; font-size: 12px; font-style: normal; font-variant-ligatures: normal; font-variant-caps: normal; font-weight: 400; letter-spacing: normal; orphans: 2; text-align: center; text-indent: 0px; text-transform: none; widows: 2; word-spacing: 0px; -webkit-text-stroke-width: 0px; white-space: normal; background-color: rgb(27, 29, 30); text-decoration-thickness: initial; text-decoration-style: initial; text-decoration-color: initial; display: inline !important; float: none;&quot;&gt;Yêu cầu nhập&lt;/span&gt;&lt;div style=&quot;forced-color-adjust: none; border-color: rgb(0, 0, 0); color: rgb(240, 240, 240); font-family: Helvetica; font-size: 12px; font-style: normal; font-variant-ligatures: normal; font-variant-caps: normal; font-weight: 400; letter-spacing: normal; orphans: 2; text-align: center; text-indent: 0px; text-transform: none; widows: 2; word-spacing: 0px; -webkit-text-stroke-width: 0px; white-space: normal; background-color: rgb(27, 29, 30); text-decoration-thickness: initial; text-decoration-style: initial; text-decoration-color: initial;&quot;&gt;Nghệ danh&lt;/div&gt;&lt;div style=&quot;forced-color-adjust: none; border-color: rgb(0, 0, 0); color: rgb(240, 240, 240); font-family: Helvetica; font-size: 12px; font-style: normal; font-variant-ligatures: normal; font-variant-caps: normal; font-weight: 400; letter-spacing: normal; orphans: 2; text-align: center; text-indent: 0px; text-transform: none; widows: 2; word-spacing: 0px; -webkit-text-stroke-width: 0px; white-space: normal; background-color: rgb(27, 29, 30); text-decoration-thickness: initial; text-decoration-style: initial; text-decoration-color: initial;&quot;&gt;Số điện thoại&lt;/div&gt;&#xa;&#xa;" style="shape=parallelogram;perimeter=parallelogramPerimeter;whiteSpace=wrap;html=1;fixedSize=1;labelBackgroundColor=none;" parent="1" vertex="1">
          <mxGeometry x="-205" y="540" width="120" height="60" as="geometry" />
        </mxCell>
        <mxCell id="nyCwR31oe8qXn2ElLDsS-43" value="Đúng" style="text;html=1;align=center;verticalAlign=middle;resizable=0;points=[];autosize=1;strokeColor=none;fillColor=none;labelBackgroundColor=none;" parent="1" vertex="1">
          <mxGeometry x="-430" y="520" width="50" height="30" as="geometry" />
        </mxCell>
        <mxCell id="nyCwR31oe8qXn2ElLDsS-44" style="edgeStyle=orthogonalEdgeStyle;rounded=0;orthogonalLoop=1;jettySize=auto;html=1;exitX=0.5;exitY=0;exitDx=0;exitDy=0;entryX=0.613;entryY=-0.015;entryDx=0;entryDy=0;entryPerimeter=0;labelBackgroundColor=none;fontColor=default;" parent="1" source="nyCwR31oe8qXn2ElLDsS-38" target="nyCwR31oe8qXn2ElLDsS-42" edge="1">
          <mxGeometry relative="1" as="geometry" />
        </mxCell>
        <mxCell id="nyCwR31oe8qXn2ElLDsS-45" value="Sai" style="text;html=1;align=center;verticalAlign=middle;resizable=0;points=[];autosize=1;strokeColor=none;fillColor=none;labelBackgroundColor=none;" parent="1" vertex="1">
          <mxGeometry x="-230" y="490" width="40" height="30" as="geometry" />
        </mxCell>
      </root>
    </mxGraphModel>
  </diagram>
  <diagram id="wFbXjp9tMHAORX58B1zx" name="AdminPage">
    <mxGraphModel dx="2350" dy="887" grid="1" gridSize="10" guides="1" tooltips="1" connect="1" arrows="1" fold="1" page="1" pageScale="1" pageWidth="850" pageHeight="1100" math="0" shadow="0">
      <root>
        <mxCell id="0" />
        <mxCell id="1" parent="0" />
        <mxCell id="Z9-MjUqUpqsE86HchkS_-3" value="" style="edgeStyle=orthogonalEdgeStyle;rounded=0;orthogonalLoop=1;jettySize=auto;html=1;" parent="1" source="Z9-MjUqUpqsE86HchkS_-1" target="Z9-MjUqUpqsE86HchkS_-2" edge="1">
          <mxGeometry relative="1" as="geometry" />
        </mxCell>
        <mxCell id="Z9-MjUqUpqsE86HchkS_-5" value="" style="edgeStyle=orthogonalEdgeStyle;rounded=0;orthogonalLoop=1;jettySize=auto;html=1;" parent="1" source="Z9-MjUqUpqsE86HchkS_-1" target="Z9-MjUqUpqsE86HchkS_-4" edge="1">
          <mxGeometry relative="1" as="geometry" />
        </mxCell>
        <mxCell id="Z9-MjUqUpqsE86HchkS_-1" value="Trang Admin" style="ellipse;whiteSpace=wrap;html=1;aspect=fixed;" parent="1" vertex="1">
          <mxGeometry x="360" y="20" width="80" height="80" as="geometry" />
        </mxCell>
        <mxCell id="Z9-MjUqUpqsE86HchkS_-2" value="Trang Overview&lt;div&gt;( giống trang user)&lt;/div&gt;" style="ellipse;whiteSpace=wrap;html=1;" parent="1" vertex="1">
          <mxGeometry x="210" y="120" width="80" height="80" as="geometry" />
        </mxCell>
        <mxCell id="Z9-MjUqUpqsE86HchkS_-7" value="" style="edgeStyle=orthogonalEdgeStyle;rounded=0;orthogonalLoop=1;jettySize=auto;html=1;" parent="1" source="Z9-MjUqUpqsE86HchkS_-4" target="Z9-MjUqUpqsE86HchkS_-6" edge="1">
          <mxGeometry relative="1" as="geometry" />
        </mxCell>
        <mxCell id="Z9-MjUqUpqsE86HchkS_-4" value="Trang quản lý" style="ellipse;whiteSpace=wrap;html=1;" parent="1" vertex="1">
          <mxGeometry x="520" y="120" width="80" height="80" as="geometry" />
        </mxCell>
        <mxCell id="Z9-MjUqUpqsE86HchkS_-9" value="" style="edgeStyle=orthogonalEdgeStyle;rounded=0;orthogonalLoop=1;jettySize=auto;html=1;" parent="1" source="Z9-MjUqUpqsE86HchkS_-6" target="Z9-MjUqUpqsE86HchkS_-8" edge="1">
          <mxGeometry relative="1" as="geometry" />
        </mxCell>
        <mxCell id="Z9-MjUqUpqsE86HchkS_-11" value="" style="edgeStyle=orthogonalEdgeStyle;rounded=0;orthogonalLoop=1;jettySize=auto;html=1;" parent="1" source="Z9-MjUqUpqsE86HchkS_-6" target="Z9-MjUqUpqsE86HchkS_-10" edge="1">
          <mxGeometry relative="1" as="geometry" />
        </mxCell>
        <mxCell id="Z9-MjUqUpqsE86HchkS_-13" value="" style="edgeStyle=orthogonalEdgeStyle;rounded=0;orthogonalLoop=1;jettySize=auto;html=1;" parent="1" source="Z9-MjUqUpqsE86HchkS_-6" target="Z9-MjUqUpqsE86HchkS_-12" edge="1">
          <mxGeometry relative="1" as="geometry" />
        </mxCell>
        <mxCell id="Z9-MjUqUpqsE86HchkS_-6" value="Chức năng&lt;div&gt;Quản lý User&lt;/div&gt;&lt;div&gt;Quản lý Tác giả&lt;/div&gt;&lt;div&gt;Quản lý Bài Viết&lt;/div&gt;" style="rounded=1;whiteSpace=wrap;html=1;" parent="1" vertex="1">
          <mxGeometry x="500" y="290" width="120" height="60" as="geometry" />
        </mxCell>
        <mxCell id="Z9-MjUqUpqsE86HchkS_-15" value="" style="edgeStyle=orthogonalEdgeStyle;rounded=0;orthogonalLoop=1;jettySize=auto;html=1;" parent="1" target="Z9-MjUqUpqsE86HchkS_-14" edge="1">
          <mxGeometry relative="1" as="geometry">
            <mxPoint x="190" y="319.9999999999998" as="sourcePoint" />
          </mxGeometry>
        </mxCell>
        <mxCell id="G7JyreGo5FAqYbJt1gjs-93" style="edgeStyle=orthogonalEdgeStyle;rounded=0;orthogonalLoop=1;jettySize=auto;html=1;exitX=0;exitY=0.5;exitDx=0;exitDy=0;entryX=0.5;entryY=0;entryDx=0;entryDy=0;" edge="1" parent="1" source="Z9-MjUqUpqsE86HchkS_-8" target="Z9-MjUqUpqsE86HchkS_-14">
          <mxGeometry relative="1" as="geometry" />
        </mxCell>
        <mxCell id="Z9-MjUqUpqsE86HchkS_-8" value="Quản lý user" style="rhombus;whiteSpace=wrap;html=1;rounded=1;" parent="1" vertex="1">
          <mxGeometry x="210" y="280" width="80" height="80" as="geometry" />
        </mxCell>
        <mxCell id="Z9-MjUqUpqsE86HchkS_-17" value="" style="edgeStyle=orthogonalEdgeStyle;rounded=0;orthogonalLoop=1;jettySize=auto;html=1;" parent="1" source="Z9-MjUqUpqsE86HchkS_-10" target="Z9-MjUqUpqsE86HchkS_-16" edge="1">
          <mxGeometry relative="1" as="geometry" />
        </mxCell>
        <mxCell id="Z9-MjUqUpqsE86HchkS_-10" value="Quản lý Tác giả" style="rhombus;whiteSpace=wrap;html=1;rounded=1;" parent="1" vertex="1">
          <mxGeometry x="720" y="280" width="80" height="80" as="geometry" />
        </mxCell>
        <mxCell id="Z9-MjUqUpqsE86HchkS_-19" value="" style="edgeStyle=orthogonalEdgeStyle;rounded=0;orthogonalLoop=1;jettySize=auto;html=1;" parent="1" source="Z9-MjUqUpqsE86HchkS_-12" target="Z9-MjUqUpqsE86HchkS_-18" edge="1">
          <mxGeometry relative="1" as="geometry" />
        </mxCell>
        <mxCell id="Z9-MjUqUpqsE86HchkS_-12" value="Quản lý bài viết" style="rhombus;whiteSpace=wrap;html=1;rounded=1;" parent="1" vertex="1">
          <mxGeometry x="520" y="420" width="80" height="80" as="geometry" />
        </mxCell>
        <mxCell id="Z9-MjUqUpqsE86HchkS_-21" value="" style="edgeStyle=orthogonalEdgeStyle;rounded=0;orthogonalLoop=1;jettySize=auto;html=1;" parent="1" source="Z9-MjUqUpqsE86HchkS_-14" target="Z9-MjUqUpqsE86HchkS_-20" edge="1">
          <mxGeometry relative="1" as="geometry" />
        </mxCell>
        <mxCell id="Z9-MjUqUpqsE86HchkS_-14" value="Trang danh sách user" style="ellipse;whiteSpace=wrap;html=1;rounded=1;" parent="1" vertex="1">
          <mxGeometry x="20" y="370" width="80" height="80" as="geometry" />
        </mxCell>
        <mxCell id="Z9-MjUqUpqsE86HchkS_-23" value="" style="edgeStyle=orthogonalEdgeStyle;rounded=0;orthogonalLoop=1;jettySize=auto;html=1;" parent="1" source="Z9-MjUqUpqsE86HchkS_-16" target="Z9-MjUqUpqsE86HchkS_-22" edge="1">
          <mxGeometry relative="1" as="geometry" />
        </mxCell>
        <mxCell id="Z9-MjUqUpqsE86HchkS_-16" value="Trang danh sách Tác giả" style="ellipse;whiteSpace=wrap;html=1;rounded=1;" parent="1" vertex="1">
          <mxGeometry x="980" y="380" width="80" height="80" as="geometry" />
        </mxCell>
        <mxCell id="G7JyreGo5FAqYbJt1gjs-65" value="" style="edgeStyle=orthogonalEdgeStyle;rounded=0;orthogonalLoop=1;jettySize=auto;html=1;" edge="1" parent="1" source="Z9-MjUqUpqsE86HchkS_-18" target="G7JyreGo5FAqYbJt1gjs-64">
          <mxGeometry relative="1" as="geometry" />
        </mxCell>
        <mxCell id="Z9-MjUqUpqsE86HchkS_-18" value="Trang danh sách bài viết" style="ellipse;whiteSpace=wrap;html=1;rounded=1;" parent="1" vertex="1">
          <mxGeometry x="520" y="580" width="80" height="80" as="geometry" />
        </mxCell>
        <mxCell id="Znd1Y-3sxxwXGUlu4pxX-2" value="" style="edgeStyle=orthogonalEdgeStyle;rounded=0;orthogonalLoop=1;jettySize=auto;html=1;" edge="1" parent="1" source="Z9-MjUqUpqsE86HchkS_-20" target="Znd1Y-3sxxwXGUlu4pxX-1">
          <mxGeometry relative="1" as="geometry" />
        </mxCell>
        <mxCell id="Znd1Y-3sxxwXGUlu4pxX-19" value="" style="edgeStyle=orthogonalEdgeStyle;rounded=0;orthogonalLoop=1;jettySize=auto;html=1;" edge="1" parent="1" source="Z9-MjUqUpqsE86HchkS_-20" target="Znd1Y-3sxxwXGUlu4pxX-18">
          <mxGeometry relative="1" as="geometry" />
        </mxCell>
        <mxCell id="Znd1Y-3sxxwXGUlu4pxX-29" value="" style="edgeStyle=orthogonalEdgeStyle;rounded=0;orthogonalLoop=1;jettySize=auto;html=1;" edge="1" parent="1" source="Z9-MjUqUpqsE86HchkS_-20" target="Znd1Y-3sxxwXGUlu4pxX-28">
          <mxGeometry relative="1" as="geometry" />
        </mxCell>
        <mxCell id="Z9-MjUqUpqsE86HchkS_-20" value="Chức năng&lt;div&gt;Thêm, xóa ,c&lt;span style=&quot;background-color: initial;&quot;&gt;hỉnh sửa user&lt;/span&gt;&lt;/div&gt;" style="rounded=1;whiteSpace=wrap;html=1;" parent="1" vertex="1">
          <mxGeometry y="480" width="120" height="60" as="geometry" />
        </mxCell>
        <mxCell id="Znd1Y-3sxxwXGUlu4pxX-58" value="" style="edgeStyle=orthogonalEdgeStyle;rounded=0;orthogonalLoop=1;jettySize=auto;html=1;" edge="1" parent="1" source="Z9-MjUqUpqsE86HchkS_-22" target="Znd1Y-3sxxwXGUlu4pxX-57">
          <mxGeometry relative="1" as="geometry" />
        </mxCell>
        <mxCell id="Znd1Y-3sxxwXGUlu4pxX-60" value="" style="edgeStyle=orthogonalEdgeStyle;rounded=0;orthogonalLoop=1;jettySize=auto;html=1;" edge="1" parent="1" source="Z9-MjUqUpqsE86HchkS_-22" target="Znd1Y-3sxxwXGUlu4pxX-59">
          <mxGeometry relative="1" as="geometry" />
        </mxCell>
        <mxCell id="G7JyreGo5FAqYbJt1gjs-16" value="" style="edgeStyle=orthogonalEdgeStyle;rounded=0;orthogonalLoop=1;jettySize=auto;html=1;" edge="1" parent="1" source="Z9-MjUqUpqsE86HchkS_-22" target="G7JyreGo5FAqYbJt1gjs-15">
          <mxGeometry relative="1" as="geometry" />
        </mxCell>
        <mxCell id="G7JyreGo5FAqYbJt1gjs-36" value="" style="edgeStyle=orthogonalEdgeStyle;rounded=0;orthogonalLoop=1;jettySize=auto;html=1;" edge="1" parent="1" source="Z9-MjUqUpqsE86HchkS_-22" target="G7JyreGo5FAqYbJt1gjs-35">
          <mxGeometry relative="1" as="geometry" />
        </mxCell>
        <mxCell id="G7JyreGo5FAqYbJt1gjs-53" value="" style="edgeStyle=orthogonalEdgeStyle;rounded=0;orthogonalLoop=1;jettySize=auto;html=1;" edge="1" parent="1" source="Z9-MjUqUpqsE86HchkS_-22" target="G7JyreGo5FAqYbJt1gjs-52">
          <mxGeometry relative="1" as="geometry" />
        </mxCell>
        <mxCell id="Z9-MjUqUpqsE86HchkS_-22" value="&lt;br&gt;&lt;span style=&quot;color: rgb(240, 240, 240); font-family: Helvetica; font-size: 12px; font-style: normal; font-variant-ligatures: normal; font-variant-caps: normal; font-weight: 400; letter-spacing: normal; orphans: 2; text-align: center; text-indent: 0px; text-transform: none; widows: 2; word-spacing: 0px; -webkit-text-stroke-width: 0px; white-space: normal; background-color: rgb(27, 29, 30); text-decoration-thickness: initial; text-decoration-style: initial; text-decoration-color: initial; display: inline !important; float: none;&quot;&gt;Chức năng&lt;/span&gt;&lt;div style=&quot;forced-color-adjust: none; border-color: rgb(0, 0, 0); color: rgb(240, 240, 240); font-family: Helvetica; font-size: 12px; font-style: normal; font-variant-ligatures: normal; font-variant-caps: normal; font-weight: 400; letter-spacing: normal; orphans: 2; text-align: center; text-indent: 0px; text-transform: none; widows: 2; word-spacing: 0px; -webkit-text-stroke-width: 0px; white-space: normal; background-color: rgb(27, 29, 30); text-decoration-thickness: initial; text-decoration-style: initial; text-decoration-color: initial;&quot;&gt;Thêm, xóa ,c&lt;span style=&quot;forced-color-adjust: none; border-color: rgb(0, 0, 0); background-color: initial;&quot;&gt;hỉnh sửa tác giả&lt;/span&gt;&lt;/div&gt;&lt;div style=&quot;forced-color-adjust: none; border-color: rgb(0, 0, 0); color: rgb(240, 240, 240); font-family: Helvetica; font-size: 12px; font-style: normal; font-variant-ligatures: normal; font-variant-caps: normal; font-weight: 400; letter-spacing: normal; orphans: 2; text-align: center; text-indent: 0px; text-transform: none; widows: 2; word-spacing: 0px; -webkit-text-stroke-width: 0px; white-space: normal; background-color: rgb(27, 29, 30); text-decoration-thickness: initial; text-decoration-style: initial; text-decoration-color: initial;&quot;&gt;Thêm, xóa quyền hạn&lt;/div&gt;&lt;div&gt;&lt;br/&gt;&lt;/div&gt;" style="rounded=1;whiteSpace=wrap;html=1;" parent="1" vertex="1">
          <mxGeometry x="960" y="490" width="120" height="60" as="geometry" />
        </mxCell>
        <mxCell id="Znd1Y-3sxxwXGUlu4pxX-4" value="" style="edgeStyle=orthogonalEdgeStyle;rounded=0;orthogonalLoop=1;jettySize=auto;html=1;" edge="1" parent="1" source="Znd1Y-3sxxwXGUlu4pxX-1" target="Znd1Y-3sxxwXGUlu4pxX-3">
          <mxGeometry relative="1" as="geometry" />
        </mxCell>
        <mxCell id="Znd1Y-3sxxwXGUlu4pxX-1" value="Thêm User" style="rhombus;whiteSpace=wrap;html=1;rounded=1;" vertex="1" parent="1">
          <mxGeometry x="-90" y="560" width="80" height="80" as="geometry" />
        </mxCell>
        <mxCell id="Znd1Y-3sxxwXGUlu4pxX-42" style="edgeStyle=orthogonalEdgeStyle;rounded=0;orthogonalLoop=1;jettySize=auto;html=1;exitX=0.5;exitY=1;exitDx=0;exitDy=0;entryX=0.5;entryY=0;entryDx=0;entryDy=0;" edge="1" parent="1" source="Znd1Y-3sxxwXGUlu4pxX-3" target="Znd1Y-3sxxwXGUlu4pxX-5">
          <mxGeometry relative="1" as="geometry" />
        </mxCell>
        <mxCell id="Znd1Y-3sxxwXGUlu4pxX-3" value="Yêu cầu nhập&lt;div&gt;tên User&lt;/div&gt;&lt;div&gt;email&lt;/div&gt;&lt;div&gt;passwword&amp;nbsp;&lt;/div&gt;&lt;div&gt;hoặc thông tin cần chỉnh sửa&lt;/div&gt;" style="shape=parallelogram;perimeter=parallelogramPerimeter;whiteSpace=wrap;html=1;fixedSize=1;rounded=1;" vertex="1" parent="1">
          <mxGeometry x="-100" y="680" width="210" height="80" as="geometry" />
        </mxCell>
        <mxCell id="Znd1Y-3sxxwXGUlu4pxX-10" value="" style="edgeStyle=orthogonalEdgeStyle;rounded=0;orthogonalLoop=1;jettySize=auto;html=1;" edge="1" parent="1" source="Znd1Y-3sxxwXGUlu4pxX-5" target="Znd1Y-3sxxwXGUlu4pxX-9">
          <mxGeometry relative="1" as="geometry" />
        </mxCell>
        <mxCell id="Znd1Y-3sxxwXGUlu4pxX-44" style="edgeStyle=orthogonalEdgeStyle;rounded=0;orthogonalLoop=1;jettySize=auto;html=1;exitX=0;exitY=0.5;exitDx=0;exitDy=0;entryX=0;entryY=0.5;entryDx=0;entryDy=0;" edge="1" parent="1" source="Znd1Y-3sxxwXGUlu4pxX-5" target="Znd1Y-3sxxwXGUlu4pxX-3">
          <mxGeometry relative="1" as="geometry">
            <Array as="points">
              <mxPoint x="10" y="880" />
              <mxPoint x="-120" y="880" />
              <mxPoint x="-120" y="720" />
            </Array>
          </mxGeometry>
        </mxCell>
        <mxCell id="Znd1Y-3sxxwXGUlu4pxX-5" value="Kiểm tra tính hợp lệ của tên, email, password" style="whiteSpace=wrap;html=1;rounded=1;" vertex="1" parent="1">
          <mxGeometry x="10" y="830" width="120" height="60" as="geometry" />
        </mxCell>
        <mxCell id="Znd1Y-3sxxwXGUlu4pxX-14" value="" style="edgeStyle=orthogonalEdgeStyle;rounded=0;orthogonalLoop=1;jettySize=auto;html=1;" edge="1" parent="1" source="Znd1Y-3sxxwXGUlu4pxX-9" target="Znd1Y-3sxxwXGUlu4pxX-13">
          <mxGeometry relative="1" as="geometry" />
        </mxCell>
        <mxCell id="Znd1Y-3sxxwXGUlu4pxX-9" value="Email chưa tồn tại" style="rhombus;whiteSpace=wrap;html=1;rounded=1;" vertex="1" parent="1">
          <mxGeometry x="10" y="940" width="120" height="80" as="geometry" />
        </mxCell>
        <mxCell id="Znd1Y-3sxxwXGUlu4pxX-11" value="Đúng" style="text;html=1;align=center;verticalAlign=middle;resizable=0;points=[];autosize=1;strokeColor=none;fillColor=none;" vertex="1" parent="1">
          <mxGeometry x="70" y="910" width="50" height="30" as="geometry" />
        </mxCell>
        <mxCell id="Znd1Y-3sxxwXGUlu4pxX-46" style="edgeStyle=orthogonalEdgeStyle;rounded=0;orthogonalLoop=1;jettySize=auto;html=1;exitX=0;exitY=0.5;exitDx=0;exitDy=0;entryX=0;entryY=0.5;entryDx=0;entryDy=0;" edge="1" parent="1" source="Znd1Y-3sxxwXGUlu4pxX-13" target="Z9-MjUqUpqsE86HchkS_-14">
          <mxGeometry relative="1" as="geometry">
            <Array as="points">
              <mxPoint x="-180" y="1120" />
              <mxPoint x="-180" y="410" />
            </Array>
          </mxGeometry>
        </mxCell>
        <mxCell id="Znd1Y-3sxxwXGUlu4pxX-49" value="" style="edgeStyle=orthogonalEdgeStyle;rounded=0;orthogonalLoop=1;jettySize=auto;html=1;" edge="1" parent="1" source="Znd1Y-3sxxwXGUlu4pxX-13" target="Znd1Y-3sxxwXGUlu4pxX-48">
          <mxGeometry relative="1" as="geometry" />
        </mxCell>
        <mxCell id="Znd1Y-3sxxwXGUlu4pxX-13" value="Thêm, sửa, xóa user" style="whiteSpace=wrap;html=1;rounded=1;" vertex="1" parent="1">
          <mxGeometry x="10" y="1090" width="120" height="60" as="geometry" />
        </mxCell>
        <mxCell id="Znd1Y-3sxxwXGUlu4pxX-15" value="Đúng" style="text;html=1;align=center;verticalAlign=middle;resizable=0;points=[];autosize=1;strokeColor=none;fillColor=none;" vertex="1" parent="1">
          <mxGeometry x="70" y="1030" width="50" height="30" as="geometry" />
        </mxCell>
        <mxCell id="Znd1Y-3sxxwXGUlu4pxX-17" value="Sai" style="text;html=1;align=center;verticalAlign=middle;resizable=0;points=[];autosize=1;strokeColor=none;fillColor=none;" vertex="1" parent="1">
          <mxGeometry x="-50" y="950" width="40" height="30" as="geometry" />
        </mxCell>
        <mxCell id="Znd1Y-3sxxwXGUlu4pxX-41" style="edgeStyle=orthogonalEdgeStyle;rounded=0;orthogonalLoop=1;jettySize=auto;html=1;exitX=0.5;exitY=1;exitDx=0;exitDy=0;entryX=0.5;entryY=0;entryDx=0;entryDy=0;" edge="1" parent="1" source="Znd1Y-3sxxwXGUlu4pxX-18" target="Znd1Y-3sxxwXGUlu4pxX-3">
          <mxGeometry relative="1" as="geometry" />
        </mxCell>
        <mxCell id="Znd1Y-3sxxwXGUlu4pxX-18" value="Sửa thông tin user" style="rhombus;whiteSpace=wrap;html=1;rounded=1;" vertex="1" parent="1">
          <mxGeometry y="560" width="120" height="80" as="geometry" />
        </mxCell>
        <mxCell id="Znd1Y-3sxxwXGUlu4pxX-22" style="edgeStyle=orthogonalEdgeStyle;rounded=0;orthogonalLoop=1;jettySize=auto;html=1;exitX=0;exitY=0.5;exitDx=0;exitDy=0;entryX=0;entryY=0.5;entryDx=0;entryDy=0;" edge="1" parent="1" source="Znd1Y-3sxxwXGUlu4pxX-9" target="Znd1Y-3sxxwXGUlu4pxX-3">
          <mxGeometry relative="1" as="geometry">
            <Array as="points">
              <mxPoint x="-120" y="980" />
              <mxPoint x="-120" y="720" />
            </Array>
          </mxGeometry>
        </mxCell>
        <mxCell id="G7JyreGo5FAqYbJt1gjs-20" value="" style="edgeStyle=orthogonalEdgeStyle;rounded=0;orthogonalLoop=1;jettySize=auto;html=1;" edge="1" parent="1" source="Znd1Y-3sxxwXGUlu4pxX-28" target="G7JyreGo5FAqYbJt1gjs-19">
          <mxGeometry relative="1" as="geometry" />
        </mxCell>
        <mxCell id="Znd1Y-3sxxwXGUlu4pxX-28" value="Xóa User" style="rhombus;whiteSpace=wrap;html=1;rounded=1;" vertex="1" parent="1">
          <mxGeometry x="140" y="560" width="100" height="80" as="geometry" />
        </mxCell>
        <mxCell id="Znd1Y-3sxxwXGUlu4pxX-45" style="edgeStyle=orthogonalEdgeStyle;rounded=0;orthogonalLoop=1;jettySize=auto;html=1;exitX=0.5;exitY=1;exitDx=0;exitDy=0;entryX=0.5;entryY=0;entryDx=0;entryDy=0;" edge="1" parent="1" source="Znd1Y-3sxxwXGUlu4pxX-32" target="Znd1Y-3sxxwXGUlu4pxX-13">
          <mxGeometry relative="1" as="geometry">
            <Array as="points">
              <mxPoint x="190" y="1060" />
              <mxPoint x="70" y="1060" />
            </Array>
          </mxGeometry>
        </mxCell>
        <mxCell id="Znd1Y-3sxxwXGUlu4pxX-54" style="edgeStyle=orthogonalEdgeStyle;rounded=0;orthogonalLoop=1;jettySize=auto;html=1;exitX=1;exitY=0.5;exitDx=0;exitDy=0;entryX=1;entryY=0.5;entryDx=0;entryDy=0;" edge="1" parent="1" source="Znd1Y-3sxxwXGUlu4pxX-32" target="Z9-MjUqUpqsE86HchkS_-14">
          <mxGeometry relative="1" as="geometry" />
        </mxCell>
        <mxCell id="Znd1Y-3sxxwXGUlu4pxX-32" value="Xác nhận xóa" style="whiteSpace=wrap;html=1;rounded=1;shape=rhombus;fixedSize=1;perimeter=rhombusPerimeter;" vertex="1" parent="1">
          <mxGeometry x="150" y="785" width="120" height="60" as="geometry" />
        </mxCell>
        <mxCell id="Znd1Y-3sxxwXGUlu4pxX-43" value="Sai" style="text;html=1;align=center;verticalAlign=middle;resizable=0;points=[];autosize=1;strokeColor=none;fillColor=none;" vertex="1" parent="1">
          <mxGeometry x="-80" y="845" width="40" height="30" as="geometry" />
        </mxCell>
        <mxCell id="Znd1Y-3sxxwXGUlu4pxX-47" value="Đúng" style="text;html=1;align=center;verticalAlign=middle;resizable=0;points=[];autosize=1;strokeColor=none;fillColor=none;" vertex="1" parent="1">
          <mxGeometry x="-100" y="1090" width="50" height="30" as="geometry" />
        </mxCell>
        <mxCell id="Znd1Y-3sxxwXGUlu4pxX-51" style="edgeStyle=orthogonalEdgeStyle;rounded=0;orthogonalLoop=1;jettySize=auto;html=1;" edge="1" parent="1" source="Znd1Y-3sxxwXGUlu4pxX-48">
          <mxGeometry relative="1" as="geometry">
            <mxPoint x="-180" y="1100" as="targetPoint" />
            <Array as="points">
              <mxPoint x="-179" y="1280" />
              <mxPoint x="-179" y="1210" />
            </Array>
          </mxGeometry>
        </mxCell>
        <mxCell id="Znd1Y-3sxxwXGUlu4pxX-48" value="Thông báo lỗi&amp;nbsp;" style="ellipse;whiteSpace=wrap;html=1;rounded=1;" vertex="1" parent="1">
          <mxGeometry x="30" y="1240" width="80" height="80" as="geometry" />
        </mxCell>
        <mxCell id="Znd1Y-3sxxwXGUlu4pxX-50" value="Sai" style="text;html=1;align=center;verticalAlign=middle;resizable=0;points=[];autosize=1;strokeColor=none;fillColor=none;" vertex="1" parent="1">
          <mxGeometry x="70" y="1170" width="40" height="30" as="geometry" />
        </mxCell>
        <mxCell id="Znd1Y-3sxxwXGUlu4pxX-55" value="Sai" style="text;html=1;align=center;verticalAlign=middle;resizable=0;points=[];autosize=1;strokeColor=none;fillColor=none;" vertex="1" parent="1">
          <mxGeometry x="140" y="380" width="40" height="30" as="geometry" />
        </mxCell>
        <mxCell id="Znd1Y-3sxxwXGUlu4pxX-56" style="edgeStyle=orthogonalEdgeStyle;rounded=0;orthogonalLoop=1;jettySize=auto;html=1;exitX=0.5;exitY=1;exitDx=0;exitDy=0;" edge="1" parent="1" source="Z9-MjUqUpqsE86HchkS_-22" target="Z9-MjUqUpqsE86HchkS_-22">
          <mxGeometry relative="1" as="geometry" />
        </mxCell>
        <mxCell id="Znd1Y-3sxxwXGUlu4pxX-63" value="" style="edgeStyle=orthogonalEdgeStyle;rounded=0;orthogonalLoop=1;jettySize=auto;html=1;" edge="1" parent="1" source="Znd1Y-3sxxwXGUlu4pxX-57" target="Znd1Y-3sxxwXGUlu4pxX-62">
          <mxGeometry relative="1" as="geometry" />
        </mxCell>
        <mxCell id="Znd1Y-3sxxwXGUlu4pxX-57" value="Thêm tác giả" style="rhombus;whiteSpace=wrap;html=1;rounded=1;" vertex="1" parent="1">
          <mxGeometry x="830" y="570" width="80" height="80" as="geometry" />
        </mxCell>
        <mxCell id="G7JyreGo5FAqYbJt1gjs-2" style="edgeStyle=orthogonalEdgeStyle;rounded=0;orthogonalLoop=1;jettySize=auto;html=1;exitX=0.5;exitY=1;exitDx=0;exitDy=0;entryX=0.5;entryY=0;entryDx=0;entryDy=0;" edge="1" parent="1" source="Znd1Y-3sxxwXGUlu4pxX-59" target="Znd1Y-3sxxwXGUlu4pxX-62">
          <mxGeometry relative="1" as="geometry" />
        </mxCell>
        <mxCell id="Znd1Y-3sxxwXGUlu4pxX-59" value="Sửa thông&amp;nbsp;&lt;div&gt;tin tác giả&lt;/div&gt;" style="rhombus;whiteSpace=wrap;html=1;rounded=1;" vertex="1" parent="1">
          <mxGeometry x="960" y="570" width="120" height="80" as="geometry" />
        </mxCell>
        <mxCell id="G7JyreGo5FAqYbJt1gjs-4" value="" style="edgeStyle=orthogonalEdgeStyle;rounded=0;orthogonalLoop=1;jettySize=auto;html=1;" edge="1" parent="1" source="Znd1Y-3sxxwXGUlu4pxX-62" target="G7JyreGo5FAqYbJt1gjs-3">
          <mxGeometry relative="1" as="geometry" />
        </mxCell>
        <mxCell id="Znd1Y-3sxxwXGUlu4pxX-62" value="Nhập thông tin thêm, sửa thông tin&lt;div&gt;email ,&lt;span style=&quot;background-color: initial;&quot;&gt;password&lt;/span&gt;&lt;/div&gt;&lt;div&gt;&lt;span style=&quot;background-color: initial;&quot;&gt;nghệ danh&lt;/span&gt;&lt;/div&gt;&lt;div&gt;&lt;span style=&quot;background-color: initial;&quot;&gt;số điện thoại&lt;/span&gt;&lt;/div&gt;" style="shape=parallelogram;perimeter=parallelogramPerimeter;whiteSpace=wrap;html=1;fixedSize=1;rounded=1;" vertex="1" parent="1">
          <mxGeometry x="860" y="690" width="220" height="90" as="geometry" />
        </mxCell>
        <mxCell id="G7JyreGo5FAqYbJt1gjs-5" style="edgeStyle=orthogonalEdgeStyle;rounded=0;orthogonalLoop=1;jettySize=auto;html=1;exitX=0;exitY=0.5;exitDx=0;exitDy=0;entryX=0;entryY=0.5;entryDx=0;entryDy=0;" edge="1" parent="1" source="G7JyreGo5FAqYbJt1gjs-3" target="Znd1Y-3sxxwXGUlu4pxX-62">
          <mxGeometry relative="1" as="geometry">
            <Array as="points">
              <mxPoint x="810" y="905" />
              <mxPoint x="810" y="735" />
            </Array>
          </mxGeometry>
        </mxCell>
        <mxCell id="G7JyreGo5FAqYbJt1gjs-8" value="" style="edgeStyle=orthogonalEdgeStyle;rounded=0;orthogonalLoop=1;jettySize=auto;html=1;" edge="1" parent="1" source="G7JyreGo5FAqYbJt1gjs-3" target="G7JyreGo5FAqYbJt1gjs-7">
          <mxGeometry relative="1" as="geometry" />
        </mxCell>
        <mxCell id="G7JyreGo5FAqYbJt1gjs-3" value="Kiểm tra tính hợp lệ của email, password, nghệ danh, số điện thoại" style="rounded=1;whiteSpace=wrap;html=1;" vertex="1" parent="1">
          <mxGeometry x="910" y="875" width="120" height="60" as="geometry" />
        </mxCell>
        <mxCell id="G7JyreGo5FAqYbJt1gjs-6" value="Sai" style="text;html=1;align=center;verticalAlign=middle;resizable=0;points=[];autosize=1;strokeColor=none;fillColor=none;" vertex="1" parent="1">
          <mxGeometry x="830" y="875" width="40" height="30" as="geometry" />
        </mxCell>
        <mxCell id="G7JyreGo5FAqYbJt1gjs-10" style="edgeStyle=orthogonalEdgeStyle;rounded=0;orthogonalLoop=1;jettySize=auto;html=1;exitX=0;exitY=0.5;exitDx=0;exitDy=0;entryX=0;entryY=0.5;entryDx=0;entryDy=0;" edge="1" parent="1" source="G7JyreGo5FAqYbJt1gjs-7" target="Znd1Y-3sxxwXGUlu4pxX-62">
          <mxGeometry relative="1" as="geometry">
            <Array as="points">
              <mxPoint x="810" y="1040" />
              <mxPoint x="810" y="735" />
            </Array>
          </mxGeometry>
        </mxCell>
        <mxCell id="G7JyreGo5FAqYbJt1gjs-13" value="" style="edgeStyle=orthogonalEdgeStyle;rounded=0;orthogonalLoop=1;jettySize=auto;html=1;" edge="1" parent="1" source="G7JyreGo5FAqYbJt1gjs-7" target="G7JyreGo5FAqYbJt1gjs-12">
          <mxGeometry relative="1" as="geometry" />
        </mxCell>
        <mxCell id="G7JyreGo5FAqYbJt1gjs-7" value="email == email_db&lt;div&gt;email chưa đăng ký tác giả&lt;/div&gt;&lt;div&gt;nghệ danh không tồn tại&lt;/div&gt;" style="rhombus;whiteSpace=wrap;html=1;rounded=1;" vertex="1" parent="1">
          <mxGeometry x="860" y="990" width="220" height="100" as="geometry" />
        </mxCell>
        <mxCell id="G7JyreGo5FAqYbJt1gjs-9" value="Đúng" style="text;html=1;align=center;verticalAlign=middle;resizable=0;points=[];autosize=1;strokeColor=none;fillColor=none;" vertex="1" parent="1">
          <mxGeometry x="970" y="950" width="50" height="30" as="geometry" />
        </mxCell>
        <mxCell id="G7JyreGo5FAqYbJt1gjs-11" value="Sai" style="text;html=1;align=center;verticalAlign=middle;resizable=0;points=[];autosize=1;strokeColor=none;fillColor=none;" vertex="1" parent="1">
          <mxGeometry x="810" y="1010" width="40" height="30" as="geometry" />
        </mxCell>
        <mxCell id="G7JyreGo5FAqYbJt1gjs-27" style="edgeStyle=orthogonalEdgeStyle;rounded=0;orthogonalLoop=1;jettySize=auto;html=1;exitX=0;exitY=0.5;exitDx=0;exitDy=0;entryX=0;entryY=0.5;entryDx=0;entryDy=0;" edge="1" parent="1" source="G7JyreGo5FAqYbJt1gjs-12" target="Z9-MjUqUpqsE86HchkS_-16">
          <mxGeometry relative="1" as="geometry">
            <Array as="points">
              <mxPoint x="770" y="1220" />
              <mxPoint x="770" y="420" />
            </Array>
          </mxGeometry>
        </mxCell>
        <mxCell id="G7JyreGo5FAqYbJt1gjs-30" value="" style="edgeStyle=orthogonalEdgeStyle;rounded=0;orthogonalLoop=1;jettySize=auto;html=1;" edge="1" parent="1" source="G7JyreGo5FAqYbJt1gjs-12" target="G7JyreGo5FAqYbJt1gjs-29">
          <mxGeometry relative="1" as="geometry" />
        </mxCell>
        <mxCell id="G7JyreGo5FAqYbJt1gjs-12" value="Thêm, sửa, xóa tác giả" style="whiteSpace=wrap;html=1;rounded=1;" vertex="1" parent="1">
          <mxGeometry x="910" y="1190" width="120" height="60" as="geometry" />
        </mxCell>
        <mxCell id="G7JyreGo5FAqYbJt1gjs-14" value="Đúng" style="text;html=1;align=center;verticalAlign=middle;resizable=0;points=[];autosize=1;strokeColor=none;fillColor=none;" vertex="1" parent="1">
          <mxGeometry x="970" y="1118" width="50" height="30" as="geometry" />
        </mxCell>
        <mxCell id="G7JyreGo5FAqYbJt1gjs-18" value="" style="edgeStyle=orthogonalEdgeStyle;rounded=0;orthogonalLoop=1;jettySize=auto;html=1;" edge="1" parent="1" source="G7JyreGo5FAqYbJt1gjs-15" target="G7JyreGo5FAqYbJt1gjs-17">
          <mxGeometry relative="1" as="geometry" />
        </mxCell>
        <mxCell id="G7JyreGo5FAqYbJt1gjs-15" value="Xóa tác giả" style="rhombus;whiteSpace=wrap;html=1;rounded=1;" vertex="1" parent="1">
          <mxGeometry x="1120" y="570" width="80" height="80" as="geometry" />
        </mxCell>
        <mxCell id="G7JyreGo5FAqYbJt1gjs-23" value="" style="edgeStyle=orthogonalEdgeStyle;rounded=0;orthogonalLoop=1;jettySize=auto;html=1;" edge="1" parent="1" source="G7JyreGo5FAqYbJt1gjs-17" target="G7JyreGo5FAqYbJt1gjs-22">
          <mxGeometry relative="1" as="geometry" />
        </mxCell>
        <mxCell id="G7JyreGo5FAqYbJt1gjs-17" value="Lý do xóa&lt;div&gt;&amp;nbsp;quyền tác giả&lt;/div&gt;" style="shape=parallelogram;perimeter=parallelogramPerimeter;whiteSpace=wrap;html=1;fixedSize=1;rounded=1;" vertex="1" parent="1">
          <mxGeometry x="1100" y="700" width="120" height="60" as="geometry" />
        </mxCell>
        <mxCell id="G7JyreGo5FAqYbJt1gjs-21" style="edgeStyle=orthogonalEdgeStyle;rounded=0;orthogonalLoop=1;jettySize=auto;html=1;exitX=0.5;exitY=1;exitDx=0;exitDy=0;entryX=0.5;entryY=0;entryDx=0;entryDy=0;" edge="1" parent="1" source="G7JyreGo5FAqYbJt1gjs-19" target="Znd1Y-3sxxwXGUlu4pxX-32">
          <mxGeometry relative="1" as="geometry" />
        </mxCell>
        <mxCell id="G7JyreGo5FAqYbJt1gjs-19" value="Lý do xóa User" style="shape=parallelogram;perimeter=parallelogramPerimeter;whiteSpace=wrap;html=1;fixedSize=1;rounded=1;" vertex="1" parent="1">
          <mxGeometry x="130" y="680" width="120" height="60" as="geometry" />
        </mxCell>
        <mxCell id="G7JyreGo5FAqYbJt1gjs-24" style="edgeStyle=orthogonalEdgeStyle;rounded=0;orthogonalLoop=1;jettySize=auto;html=1;exitX=0.5;exitY=1;exitDx=0;exitDy=0;entryX=0.5;entryY=0;entryDx=0;entryDy=0;" edge="1" parent="1" source="G7JyreGo5FAqYbJt1gjs-22" target="G7JyreGo5FAqYbJt1gjs-12">
          <mxGeometry relative="1" as="geometry">
            <Array as="points">
              <mxPoint x="1160" y="1150" />
              <mxPoint x="970" y="1150" />
            </Array>
          </mxGeometry>
        </mxCell>
        <mxCell id="G7JyreGo5FAqYbJt1gjs-33" style="edgeStyle=orthogonalEdgeStyle;rounded=0;orthogonalLoop=1;jettySize=auto;html=1;exitX=0.75;exitY=1;exitDx=0;exitDy=0;entryX=0;entryY=0.5;entryDx=0;entryDy=0;" edge="1" parent="1" source="G7JyreGo5FAqYbJt1gjs-22" target="Z9-MjUqUpqsE86HchkS_-16">
          <mxGeometry relative="1" as="geometry">
            <Array as="points">
              <mxPoint x="1190" y="1460" />
              <mxPoint x="770" y="1460" />
              <mxPoint x="770" y="420" />
            </Array>
          </mxGeometry>
        </mxCell>
        <mxCell id="G7JyreGo5FAqYbJt1gjs-22" value="Xác nhận xóa" style="rounded=1;whiteSpace=wrap;html=1;shape=rhombus;perimeter=rhombusPerimeter;" vertex="1" parent="1">
          <mxGeometry x="1100" y="840" width="120" height="60" as="geometry" />
        </mxCell>
        <mxCell id="G7JyreGo5FAqYbJt1gjs-28" value="Đúng" style="text;html=1;align=center;verticalAlign=middle;resizable=0;points=[];autosize=1;strokeColor=none;fillColor=none;" vertex="1" parent="1">
          <mxGeometry x="820" y="1190" width="50" height="30" as="geometry" />
        </mxCell>
        <mxCell id="G7JyreGo5FAqYbJt1gjs-32" style="edgeStyle=orthogonalEdgeStyle;rounded=0;orthogonalLoop=1;jettySize=auto;html=1;exitX=0;exitY=0.5;exitDx=0;exitDy=0;" edge="1" parent="1" source="G7JyreGo5FAqYbJt1gjs-29">
          <mxGeometry relative="1" as="geometry">
            <mxPoint x="770" y="1160.0000000000002" as="targetPoint" />
          </mxGeometry>
        </mxCell>
        <mxCell id="G7JyreGo5FAqYbJt1gjs-29" value="Thông báo lỗi" style="ellipse;whiteSpace=wrap;html=1;rounded=1;" vertex="1" parent="1">
          <mxGeometry x="930" y="1320" width="80" height="80" as="geometry" />
        </mxCell>
        <mxCell id="G7JyreGo5FAqYbJt1gjs-31" value="Sai" style="text;html=1;align=center;verticalAlign=middle;resizable=0;points=[];autosize=1;strokeColor=none;fillColor=none;" vertex="1" parent="1">
          <mxGeometry x="970" y="1275" width="40" height="30" as="geometry" />
        </mxCell>
        <mxCell id="G7JyreGo5FAqYbJt1gjs-34" value="Sai" style="text;html=1;align=center;verticalAlign=middle;resizable=0;points=[];autosize=1;strokeColor=none;fillColor=none;" vertex="1" parent="1">
          <mxGeometry x="1080" y="1428" width="40" height="30" as="geometry" />
        </mxCell>
        <mxCell id="G7JyreGo5FAqYbJt1gjs-42" value="" style="edgeStyle=orthogonalEdgeStyle;rounded=0;orthogonalLoop=1;jettySize=auto;html=1;" edge="1" parent="1" source="G7JyreGo5FAqYbJt1gjs-35" target="G7JyreGo5FAqYbJt1gjs-41">
          <mxGeometry relative="1" as="geometry" />
        </mxCell>
        <mxCell id="G7JyreGo5FAqYbJt1gjs-35" value="Thêm quyền đăng bài" style="rhombus;whiteSpace=wrap;html=1;rounded=1;" vertex="1" parent="1">
          <mxGeometry x="1230" y="570" width="90" height="80" as="geometry" />
        </mxCell>
        <mxCell id="G7JyreGo5FAqYbJt1gjs-45" value="" style="edgeStyle=orthogonalEdgeStyle;rounded=0;orthogonalLoop=1;jettySize=auto;html=1;" edge="1" parent="1" source="G7JyreGo5FAqYbJt1gjs-41" target="G7JyreGo5FAqYbJt1gjs-44">
          <mxGeometry relative="1" as="geometry">
            <Array as="points">
              <mxPoint x="1380" y="820" />
              <mxPoint x="1320" y="820" />
            </Array>
          </mxGeometry>
        </mxCell>
        <mxCell id="G7JyreGo5FAqYbJt1gjs-47" style="edgeStyle=orthogonalEdgeStyle;rounded=0;orthogonalLoop=1;jettySize=auto;html=1;exitX=0.45;exitY=0.908;exitDx=0;exitDy=0;exitPerimeter=0;" edge="1" parent="1" source="G7JyreGo5FAqYbJt1gjs-49">
          <mxGeometry relative="1" as="geometry">
            <mxPoint x="1320" y="990.0000000000002" as="targetPoint" />
            <Array as="points">
              <mxPoint x="1410" y="867" />
              <mxPoint x="1410" y="990" />
            </Array>
          </mxGeometry>
        </mxCell>
        <mxCell id="G7JyreGo5FAqYbJt1gjs-41" value="Xác nhận thêm quyền" style="whiteSpace=wrap;html=1;rounded=1;shape=rhombus;perimeter=rhombusPerimeter;" vertex="1" parent="1">
          <mxGeometry x="1300" y="710" width="160" height="60" as="geometry" />
        </mxCell>
        <mxCell id="G7JyreGo5FAqYbJt1gjs-46" style="edgeStyle=orthogonalEdgeStyle;rounded=0;orthogonalLoop=1;jettySize=auto;html=1;exitX=0.5;exitY=1;exitDx=0;exitDy=0;" edge="1" parent="1" source="G7JyreGo5FAqYbJt1gjs-44">
          <mxGeometry relative="1" as="geometry">
            <mxPoint x="1190" y="1060.0000000000002" as="targetPoint" />
          </mxGeometry>
        </mxCell>
        <mxCell id="G7JyreGo5FAqYbJt1gjs-44" value="Thông báo:&lt;div&gt;Thêm thành công&lt;/div&gt;" style="ellipse;whiteSpace=wrap;html=1;rounded=1;" vertex="1" parent="1">
          <mxGeometry x="1280" y="840" width="80" height="80" as="geometry" />
        </mxCell>
        <mxCell id="G7JyreGo5FAqYbJt1gjs-48" value="Đúng" style="text;html=1;align=center;verticalAlign=middle;resizable=0;points=[];autosize=1;strokeColor=none;fillColor=none;" vertex="1" parent="1">
          <mxGeometry x="1320" y="790" width="50" height="30" as="geometry" />
        </mxCell>
        <mxCell id="G7JyreGo5FAqYbJt1gjs-50" value="" style="edgeStyle=orthogonalEdgeStyle;rounded=0;orthogonalLoop=1;jettySize=auto;html=1;exitX=1;exitY=0.5;exitDx=0;exitDy=0;" edge="1" parent="1" source="G7JyreGo5FAqYbJt1gjs-41" target="G7JyreGo5FAqYbJt1gjs-49">
          <mxGeometry relative="1" as="geometry">
            <mxPoint x="1320" y="990.0000000000002" as="targetPoint" />
            <mxPoint x="1410" y="770" as="sourcePoint" />
            <Array as="points">
              <mxPoint x="1460" y="790" />
              <mxPoint x="1410" y="790" />
            </Array>
          </mxGeometry>
        </mxCell>
        <mxCell id="G7JyreGo5FAqYbJt1gjs-49" value="Sai" style="text;html=1;align=center;verticalAlign=middle;resizable=0;points=[];autosize=1;strokeColor=none;fillColor=none;" vertex="1" parent="1">
          <mxGeometry x="1390" y="840" width="40" height="30" as="geometry" />
        </mxCell>
        <mxCell id="G7JyreGo5FAqYbJt1gjs-55" value="" style="edgeStyle=orthogonalEdgeStyle;rounded=0;orthogonalLoop=1;jettySize=auto;html=1;" edge="1" parent="1" source="G7JyreGo5FAqYbJt1gjs-52" target="G7JyreGo5FAqYbJt1gjs-54">
          <mxGeometry relative="1" as="geometry" />
        </mxCell>
        <mxCell id="G7JyreGo5FAqYbJt1gjs-52" value="Xóa quyền đăng&amp;nbsp;" style="rhombus;whiteSpace=wrap;html=1;rounded=1;" vertex="1" parent="1">
          <mxGeometry x="1400" y="570" width="80" height="80" as="geometry" />
        </mxCell>
        <mxCell id="G7JyreGo5FAqYbJt1gjs-57" value="" style="edgeStyle=orthogonalEdgeStyle;rounded=0;orthogonalLoop=1;jettySize=auto;html=1;" edge="1" parent="1" source="G7JyreGo5FAqYbJt1gjs-54" target="G7JyreGo5FAqYbJt1gjs-56">
          <mxGeometry relative="1" as="geometry" />
        </mxCell>
        <mxCell id="G7JyreGo5FAqYbJt1gjs-54" value="Lý do xóa" style="shape=parallelogram;perimeter=parallelogramPerimeter;whiteSpace=wrap;html=1;fixedSize=1;rounded=1;" vertex="1" parent="1">
          <mxGeometry x="1500" y="660" width="120" height="60" as="geometry" />
        </mxCell>
        <mxCell id="G7JyreGo5FAqYbJt1gjs-58" style="edgeStyle=orthogonalEdgeStyle;rounded=0;orthogonalLoop=1;jettySize=auto;html=1;exitX=0;exitY=0.5;exitDx=0;exitDy=0;" edge="1" parent="1" source="G7JyreGo5FAqYbJt1gjs-56" target="G7JyreGo5FAqYbJt1gjs-49">
          <mxGeometry relative="1" as="geometry" />
        </mxCell>
        <mxCell id="G7JyreGo5FAqYbJt1gjs-60" value="" style="edgeStyle=orthogonalEdgeStyle;rounded=0;orthogonalLoop=1;jettySize=auto;html=1;" edge="1" parent="1" source="G7JyreGo5FAqYbJt1gjs-56" target="G7JyreGo5FAqYbJt1gjs-59">
          <mxGeometry relative="1" as="geometry" />
        </mxCell>
        <mxCell id="G7JyreGo5FAqYbJt1gjs-56" value="Xác nhận xóa quyền" style="rounded=1;whiteSpace=wrap;html=1;shape=rhombus;perimeter=rhombusPerimeter;" vertex="1" parent="1">
          <mxGeometry x="1500" y="800" width="130" height="60" as="geometry" />
        </mxCell>
        <mxCell id="G7JyreGo5FAqYbJt1gjs-61" style="edgeStyle=orthogonalEdgeStyle;rounded=0;orthogonalLoop=1;jettySize=auto;html=1;exitX=0;exitY=0.5;exitDx=0;exitDy=0;" edge="1" parent="1" source="G7JyreGo5FAqYbJt1gjs-59">
          <mxGeometry relative="1" as="geometry">
            <mxPoint x="1410" y="945" as="targetPoint" />
            <Array as="points">
              <mxPoint x="1411" y="945" />
            </Array>
          </mxGeometry>
        </mxCell>
        <mxCell id="G7JyreGo5FAqYbJt1gjs-59" value="Thông báo:&lt;div&gt;Xóa thành công&lt;/div&gt;" style="ellipse;whiteSpace=wrap;html=1;rounded=1;" vertex="1" parent="1">
          <mxGeometry x="1520" y="905" width="80" height="80" as="geometry" />
        </mxCell>
        <mxCell id="G7JyreGo5FAqYbJt1gjs-63" value="Đúng" style="text;html=1;align=center;verticalAlign=middle;resizable=0;points=[];autosize=1;strokeColor=none;fillColor=none;" vertex="1" parent="1">
          <mxGeometry x="1560" y="870" width="50" height="30" as="geometry" />
        </mxCell>
        <mxCell id="G7JyreGo5FAqYbJt1gjs-67" value="" style="edgeStyle=orthogonalEdgeStyle;rounded=0;orthogonalLoop=1;jettySize=auto;html=1;" edge="1" parent="1" source="G7JyreGo5FAqYbJt1gjs-64" target="G7JyreGo5FAqYbJt1gjs-66">
          <mxGeometry relative="1" as="geometry" />
        </mxCell>
        <mxCell id="G7JyreGo5FAqYbJt1gjs-71" value="" style="edgeStyle=orthogonalEdgeStyle;rounded=0;orthogonalLoop=1;jettySize=auto;html=1;" edge="1" parent="1" source="G7JyreGo5FAqYbJt1gjs-64" target="G7JyreGo5FAqYbJt1gjs-70">
          <mxGeometry relative="1" as="geometry" />
        </mxCell>
        <mxCell id="G7JyreGo5FAqYbJt1gjs-74" value="" style="edgeStyle=orthogonalEdgeStyle;rounded=0;orthogonalLoop=1;jettySize=auto;html=1;" edge="1" parent="1" source="G7JyreGo5FAqYbJt1gjs-64" target="G7JyreGo5FAqYbJt1gjs-73">
          <mxGeometry relative="1" as="geometry" />
        </mxCell>
        <mxCell id="G7JyreGo5FAqYbJt1gjs-64" value="Chức năng&lt;div&gt;Thêm, sửa, xóa&lt;/div&gt;" style="whiteSpace=wrap;html=1;rounded=1;" vertex="1" parent="1">
          <mxGeometry x="500" y="700" width="120" height="60" as="geometry" />
        </mxCell>
        <mxCell id="G7JyreGo5FAqYbJt1gjs-69" value="" style="edgeStyle=orthogonalEdgeStyle;rounded=0;orthogonalLoop=1;jettySize=auto;html=1;" edge="1" parent="1" source="G7JyreGo5FAqYbJt1gjs-66" target="G7JyreGo5FAqYbJt1gjs-68">
          <mxGeometry relative="1" as="geometry" />
        </mxCell>
        <mxCell id="G7JyreGo5FAqYbJt1gjs-66" value="Thêm bài viết" style="rhombus;whiteSpace=wrap;html=1;rounded=1;" vertex="1" parent="1">
          <mxGeometry x="360" y="740" width="80" height="80" as="geometry" />
        </mxCell>
        <mxCell id="G7JyreGo5FAqYbJt1gjs-68" value="Trang viết blog" style="ellipse;whiteSpace=wrap;html=1;rounded=1;" vertex="1" parent="1">
          <mxGeometry x="360" y="870" width="80" height="80" as="geometry" />
        </mxCell>
        <mxCell id="G7JyreGo5FAqYbJt1gjs-72" style="edgeStyle=orthogonalEdgeStyle;rounded=0;orthogonalLoop=1;jettySize=auto;html=1;exitX=0.5;exitY=1;exitDx=0;exitDy=0;entryX=1;entryY=0.5;entryDx=0;entryDy=0;" edge="1" parent="1" source="G7JyreGo5FAqYbJt1gjs-70" target="G7JyreGo5FAqYbJt1gjs-68">
          <mxGeometry relative="1" as="geometry" />
        </mxCell>
        <mxCell id="G7JyreGo5FAqYbJt1gjs-70" value="Sửa bài viết" style="rhombus;whiteSpace=wrap;html=1;rounded=1;" vertex="1" parent="1">
          <mxGeometry x="490" y="800" width="80" height="80" as="geometry" />
        </mxCell>
        <mxCell id="G7JyreGo5FAqYbJt1gjs-76" value="" style="edgeStyle=orthogonalEdgeStyle;rounded=0;orthogonalLoop=1;jettySize=auto;html=1;" edge="1" parent="1" source="G7JyreGo5FAqYbJt1gjs-73" target="G7JyreGo5FAqYbJt1gjs-75">
          <mxGeometry relative="1" as="geometry" />
        </mxCell>
        <mxCell id="G7JyreGo5FAqYbJt1gjs-73" value="Xóa bài viết" style="rhombus;whiteSpace=wrap;html=1;rounded=1;" vertex="1" parent="1">
          <mxGeometry x="630" y="795" width="80" height="80" as="geometry" />
        </mxCell>
        <mxCell id="G7JyreGo5FAqYbJt1gjs-78" value="" style="edgeStyle=orthogonalEdgeStyle;rounded=0;orthogonalLoop=1;jettySize=auto;html=1;" edge="1" parent="1" source="G7JyreGo5FAqYbJt1gjs-75" target="G7JyreGo5FAqYbJt1gjs-77">
          <mxGeometry relative="1" as="geometry" />
        </mxCell>
        <mxCell id="G7JyreGo5FAqYbJt1gjs-90" value="" style="edgeStyle=orthogonalEdgeStyle;rounded=0;orthogonalLoop=1;jettySize=auto;html=1;" edge="1" parent="1" source="G7JyreGo5FAqYbJt1gjs-75" target="G7JyreGo5FAqYbJt1gjs-89">
          <mxGeometry relative="1" as="geometry" />
        </mxCell>
        <mxCell id="G7JyreGo5FAqYbJt1gjs-75" value="Chức năng&lt;div&gt;Xóa bài viết tác giả&lt;/div&gt;&lt;div&gt;Xóa bài viết bản thân&lt;/div&gt;" style="whiteSpace=wrap;html=1;rounded=1;" vertex="1" parent="1">
          <mxGeometry x="610" y="925" width="120" height="60" as="geometry" />
        </mxCell>
        <mxCell id="G7JyreGo5FAqYbJt1gjs-80" value="" style="edgeStyle=orthogonalEdgeStyle;rounded=0;orthogonalLoop=1;jettySize=auto;html=1;" edge="1" parent="1" source="G7JyreGo5FAqYbJt1gjs-77" target="G7JyreGo5FAqYbJt1gjs-79">
          <mxGeometry relative="1" as="geometry" />
        </mxCell>
        <mxCell id="G7JyreGo5FAqYbJt1gjs-77" value="Xóa bài viết tác giả" style="rhombus;whiteSpace=wrap;html=1;rounded=1;" vertex="1" parent="1">
          <mxGeometry x="490" y="990" width="80" height="80" as="geometry" />
        </mxCell>
        <mxCell id="G7JyreGo5FAqYbJt1gjs-84" value="" style="edgeStyle=orthogonalEdgeStyle;rounded=0;orthogonalLoop=1;jettySize=auto;html=1;" edge="1" parent="1" source="G7JyreGo5FAqYbJt1gjs-79" target="G7JyreGo5FAqYbJt1gjs-83">
          <mxGeometry relative="1" as="geometry" />
        </mxCell>
        <mxCell id="G7JyreGo5FAqYbJt1gjs-79" value="Lý do xóa bài viết" style="shape=parallelogram;perimeter=parallelogramPerimeter;whiteSpace=wrap;html=1;fixedSize=1;rounded=1;" vertex="1" parent="1">
          <mxGeometry x="470" y="1103" width="120" height="60" as="geometry" />
        </mxCell>
        <mxCell id="G7JyreGo5FAqYbJt1gjs-86" value="" style="edgeStyle=orthogonalEdgeStyle;rounded=0;orthogonalLoop=1;jettySize=auto;html=1;" edge="1" parent="1" source="G7JyreGo5FAqYbJt1gjs-83" target="G7JyreGo5FAqYbJt1gjs-85">
          <mxGeometry relative="1" as="geometry" />
        </mxCell>
        <mxCell id="G7JyreGo5FAqYbJt1gjs-83" value="Xác nhận xóa" style="rhombus;whiteSpace=wrap;html=1;rounded=1;" vertex="1" parent="1">
          <mxGeometry x="490" y="1210" width="80" height="80" as="geometry" />
        </mxCell>
        <mxCell id="G7JyreGo5FAqYbJt1gjs-94" style="edgeStyle=orthogonalEdgeStyle;rounded=0;orthogonalLoop=1;jettySize=auto;html=1;exitX=0;exitY=0.5;exitDx=0;exitDy=0;entryX=0;entryY=0.5;entryDx=0;entryDy=0;" edge="1" parent="1" source="G7JyreGo5FAqYbJt1gjs-85" target="Z9-MjUqUpqsE86HchkS_-18">
          <mxGeometry relative="1" as="geometry">
            <Array as="points">
              <mxPoint x="340" y="1380" />
              <mxPoint x="340" y="620" />
            </Array>
          </mxGeometry>
        </mxCell>
        <mxCell id="G7JyreGo5FAqYbJt1gjs-97" value="" style="edgeStyle=orthogonalEdgeStyle;rounded=0;orthogonalLoop=1;jettySize=auto;html=1;" edge="1" parent="1" source="G7JyreGo5FAqYbJt1gjs-85" target="G7JyreGo5FAqYbJt1gjs-96">
          <mxGeometry relative="1" as="geometry" />
        </mxCell>
        <mxCell id="G7JyreGo5FAqYbJt1gjs-85" value="Xóa bài viết&amp;nbsp;" style="whiteSpace=wrap;html=1;rounded=1;" vertex="1" parent="1">
          <mxGeometry x="470" y="1350" width="120" height="60" as="geometry" />
        </mxCell>
        <mxCell id="G7JyreGo5FAqYbJt1gjs-91" style="edgeStyle=orthogonalEdgeStyle;rounded=0;orthogonalLoop=1;jettySize=auto;html=1;exitX=0.5;exitY=1;exitDx=0;exitDy=0;entryX=1;entryY=0.5;entryDx=0;entryDy=0;" edge="1" parent="1" source="G7JyreGo5FAqYbJt1gjs-89" target="G7JyreGo5FAqYbJt1gjs-83">
          <mxGeometry relative="1" as="geometry" />
        </mxCell>
        <mxCell id="G7JyreGo5FAqYbJt1gjs-89" value="Xóa bài bản thân" style="rhombus;whiteSpace=wrap;html=1;rounded=1;" vertex="1" parent="1">
          <mxGeometry x="630" y="1060" width="80" height="80" as="geometry" />
        </mxCell>
        <mxCell id="G7JyreGo5FAqYbJt1gjs-92" value="Đúng" style="text;html=1;align=center;verticalAlign=middle;resizable=0;points=[];autosize=1;strokeColor=none;fillColor=none;" vertex="1" parent="1">
          <mxGeometry x="535" y="1305" width="50" height="30" as="geometry" />
        </mxCell>
        <mxCell id="G7JyreGo5FAqYbJt1gjs-95" value="Đúng" style="text;html=1;align=center;verticalAlign=middle;resizable=0;points=[];autosize=1;strokeColor=none;fillColor=none;" vertex="1" parent="1">
          <mxGeometry x="400" y="1345" width="50" height="30" as="geometry" />
        </mxCell>
        <mxCell id="G7JyreGo5FAqYbJt1gjs-96" value="Thông báo lỗi" style="ellipse;whiteSpace=wrap;html=1;rounded=1;" vertex="1" parent="1">
          <mxGeometry x="490" y="1450" width="80" height="80" as="geometry" />
        </mxCell>
      </root>
    </mxGraphModel>
  </diagram>
  <diagram id="wPjjoLrPySTIVkrbB8rL" name="WriteBlogPage">
    <mxGraphModel dx="1500" dy="887" grid="1" gridSize="10" guides="1" tooltips="1" connect="1" arrows="1" fold="1" page="1" pageScale="1" pageWidth="900" pageHeight="1600" math="0" shadow="0">
      <root>
        <mxCell id="0" />
        <mxCell id="1" parent="0" />
        <mxCell id="6lRkxsmH2z13Fvhr2HeG-7" value="" style="edgeStyle=orthogonalEdgeStyle;rounded=0;orthogonalLoop=1;jettySize=auto;html=1;" edge="1" parent="1" source="6lRkxsmH2z13Fvhr2HeG-1" target="6lRkxsmH2z13Fvhr2HeG-6">
          <mxGeometry relative="1" as="geometry" />
        </mxCell>
        <mxCell id="6lRkxsmH2z13Fvhr2HeG-9" value="" style="edgeStyle=orthogonalEdgeStyle;rounded=0;orthogonalLoop=1;jettySize=auto;html=1;" edge="1" parent="1" source="6lRkxsmH2z13Fvhr2HeG-1" target="6lRkxsmH2z13Fvhr2HeG-8">
          <mxGeometry relative="1" as="geometry" />
        </mxCell>
        <mxCell id="6lRkxsmH2z13Fvhr2HeG-1" value="Trang viết blog" style="ellipse;whiteSpace=wrap;html=1;aspect=fixed;" vertex="1" parent="1">
          <mxGeometry x="410" y="20" width="80" height="80" as="geometry" />
        </mxCell>
        <mxCell id="6lRkxsmH2z13Fvhr2HeG-6" value="Danh sách bài viết của tôi" style="ellipse;whiteSpace=wrap;html=1;" vertex="1" parent="1">
          <mxGeometry x="240" y="110" width="80" height="80" as="geometry" />
        </mxCell>
        <mxCell id="6lRkxsmH2z13Fvhr2HeG-11" value="" style="edgeStyle=orthogonalEdgeStyle;rounded=0;orthogonalLoop=1;jettySize=auto;html=1;" edge="1" parent="1" source="6lRkxsmH2z13Fvhr2HeG-8" target="6lRkxsmH2z13Fvhr2HeG-10">
          <mxGeometry relative="1" as="geometry" />
        </mxCell>
        <mxCell id="6lRkxsmH2z13Fvhr2HeG-18" value="" style="edgeStyle=orthogonalEdgeStyle;rounded=0;orthogonalLoop=1;jettySize=auto;html=1;" edge="1" parent="1" source="6lRkxsmH2z13Fvhr2HeG-8" target="6lRkxsmH2z13Fvhr2HeG-17">
          <mxGeometry relative="1" as="geometry" />
        </mxCell>
        <mxCell id="6lRkxsmH2z13Fvhr2HeG-37" value="" style="edgeStyle=orthogonalEdgeStyle;rounded=0;orthogonalLoop=1;jettySize=auto;html=1;" edge="1" parent="1" source="6lRkxsmH2z13Fvhr2HeG-8" target="6lRkxsmH2z13Fvhr2HeG-36">
          <mxGeometry relative="1" as="geometry" />
        </mxCell>
        <mxCell id="6lRkxsmH2z13Fvhr2HeG-8" value="Thêm bài viết,&lt;div&gt;xóa bài viết,&lt;/div&gt;&lt;div&gt;chỉnh sửa bài viết&lt;/div&gt;" style="whiteSpace=wrap;html=1;" vertex="1" parent="1">
          <mxGeometry x="550" y="110" width="120" height="60" as="geometry" />
        </mxCell>
        <mxCell id="6lRkxsmH2z13Fvhr2HeG-13" value="" style="edgeStyle=orthogonalEdgeStyle;rounded=0;orthogonalLoop=1;jettySize=auto;html=1;" edge="1" parent="1" source="6lRkxsmH2z13Fvhr2HeG-10" target="6lRkxsmH2z13Fvhr2HeG-12">
          <mxGeometry relative="1" as="geometry" />
        </mxCell>
        <mxCell id="6lRkxsmH2z13Fvhr2HeG-10" value="Thêm bài viết" style="rhombus;whiteSpace=wrap;html=1;" vertex="1" parent="1">
          <mxGeometry x="640" y="210" width="120" height="80" as="geometry" />
        </mxCell>
        <mxCell id="6lRkxsmH2z13Fvhr2HeG-46" value="" style="edgeStyle=orthogonalEdgeStyle;rounded=0;orthogonalLoop=1;jettySize=auto;html=1;" edge="1" parent="1" source="6lRkxsmH2z13Fvhr2HeG-12" target="6lRkxsmH2z13Fvhr2HeG-45">
          <mxGeometry relative="1" as="geometry" />
        </mxCell>
        <mxCell id="6lRkxsmH2z13Fvhr2HeG-12" value="Trang viết bài" style="ellipse;whiteSpace=wrap;html=1;" vertex="1" parent="1">
          <mxGeometry x="660" y="360" width="80" height="80" as="geometry" />
        </mxCell>
        <mxCell id="6lRkxsmH2z13Fvhr2HeG-22" value="" style="edgeStyle=orthogonalEdgeStyle;rounded=0;orthogonalLoop=1;jettySize=auto;html=1;" edge="1" parent="1" source="6lRkxsmH2z13Fvhr2HeG-17" target="6lRkxsmH2z13Fvhr2HeG-21">
          <mxGeometry relative="1" as="geometry" />
        </mxCell>
        <mxCell id="6lRkxsmH2z13Fvhr2HeG-24" value="" style="edgeStyle=orthogonalEdgeStyle;rounded=0;orthogonalLoop=1;jettySize=auto;html=1;" edge="1" parent="1" source="6lRkxsmH2z13Fvhr2HeG-21" target="6lRkxsmH2z13Fvhr2HeG-23">
          <mxGeometry relative="1" as="geometry" />
        </mxCell>
        <mxCell id="6lRkxsmH2z13Fvhr2HeG-28" style="edgeStyle=orthogonalEdgeStyle;rounded=0;orthogonalLoop=1;jettySize=auto;html=1;exitX=0;exitY=0.5;exitDx=0;exitDy=0;entryX=0.5;entryY=1;entryDx=0;entryDy=0;" edge="1" parent="1" source="6lRkxsmH2z13Fvhr2HeG-21" target="6lRkxsmH2z13Fvhr2HeG-6">
          <mxGeometry relative="1" as="geometry">
            <Array as="points">
              <mxPoint x="280" y="360" />
            </Array>
          </mxGeometry>
        </mxCell>
        <mxCell id="6lRkxsmH2z13Fvhr2HeG-21" value="Xác nhận xóa" style="rhombus;whiteSpace=wrap;html=1;" vertex="1" parent="1">
          <mxGeometry x="450" y="320" width="80" height="80" as="geometry" />
        </mxCell>
        <mxCell id="6lRkxsmH2z13Fvhr2HeG-25" style="edgeStyle=orthogonalEdgeStyle;rounded=0;orthogonalLoop=1;jettySize=auto;html=1;exitX=0;exitY=0.5;exitDx=0;exitDy=0;" edge="1" parent="1" source="6lRkxsmH2z13Fvhr2HeG-23">
          <mxGeometry relative="1" as="geometry">
            <mxPoint x="280" y="190" as="targetPoint" />
          </mxGeometry>
        </mxCell>
        <mxCell id="6lRkxsmH2z13Fvhr2HeG-33" value="" style="edgeStyle=orthogonalEdgeStyle;rounded=0;orthogonalLoop=1;jettySize=auto;html=1;" edge="1" parent="1" source="6lRkxsmH2z13Fvhr2HeG-23" target="6lRkxsmH2z13Fvhr2HeG-32">
          <mxGeometry relative="1" as="geometry" />
        </mxCell>
        <mxCell id="6lRkxsmH2z13Fvhr2HeG-23" value="Xóa bài viết&amp;nbsp;" style="whiteSpace=wrap;html=1;" vertex="1" parent="1">
          <mxGeometry x="430" y="460" width="120" height="60" as="geometry" />
        </mxCell>
        <mxCell id="6lRkxsmH2z13Fvhr2HeG-26" value="Đúng&amp;nbsp;" style="text;html=1;align=center;verticalAlign=middle;resizable=0;points=[];autosize=1;strokeColor=none;fillColor=none;" vertex="1" parent="1">
          <mxGeometry x="370" y="490" width="60" height="30" as="geometry" />
        </mxCell>
        <mxCell id="6lRkxsmH2z13Fvhr2HeG-27" value="Đúng&amp;nbsp;" style="text;html=1;align=center;verticalAlign=middle;resizable=0;points=[];autosize=1;strokeColor=none;fillColor=none;" vertex="1" parent="1">
          <mxGeometry x="490" y="418" width="60" height="30" as="geometry" />
        </mxCell>
        <mxCell id="6lRkxsmH2z13Fvhr2HeG-35" style="edgeStyle=orthogonalEdgeStyle;rounded=0;orthogonalLoop=1;jettySize=auto;html=1;exitX=0;exitY=0.5;exitDx=0;exitDy=0;entryX=0.5;entryY=1;entryDx=0;entryDy=0;" edge="1" parent="1" source="6lRkxsmH2z13Fvhr2HeG-32" target="6lRkxsmH2z13Fvhr2HeG-6">
          <mxGeometry relative="1" as="geometry" />
        </mxCell>
        <mxCell id="6lRkxsmH2z13Fvhr2HeG-32" value="Thông báo lỗi" style="ellipse;whiteSpace=wrap;html=1;" vertex="1" parent="1">
          <mxGeometry x="450" y="598" width="80" height="80" as="geometry" />
        </mxCell>
        <mxCell id="6lRkxsmH2z13Fvhr2HeG-34" value="Sai" style="text;html=1;align=center;verticalAlign=middle;resizable=0;points=[];autosize=1;strokeColor=none;fillColor=none;" vertex="1" parent="1">
          <mxGeometry x="490" y="560" width="40" height="30" as="geometry" />
        </mxCell>
        <mxCell id="6lRkxsmH2z13Fvhr2HeG-41" style="edgeStyle=orthogonalEdgeStyle;rounded=0;orthogonalLoop=1;jettySize=auto;html=1;exitX=0.5;exitY=1;exitDx=0;exitDy=0;entryX=0.5;entryY=0;entryDx=0;entryDy=0;" edge="1" parent="1" source="6lRkxsmH2z13Fvhr2HeG-36" target="6lRkxsmH2z13Fvhr2HeG-12">
          <mxGeometry relative="1" as="geometry">
            <Array as="points">
              <mxPoint x="805" y="320" />
              <mxPoint x="700" y="320" />
            </Array>
          </mxGeometry>
        </mxCell>
        <mxCell id="6lRkxsmH2z13Fvhr2HeG-36" value="Chỉnh sửa bài viết" style="rhombus;whiteSpace=wrap;html=1;" vertex="1" parent="1">
          <mxGeometry x="750" y="90" width="110" height="100" as="geometry" />
        </mxCell>
        <mxCell id="6lRkxsmH2z13Fvhr2HeG-17" value="Xóa bài viết" style="rhombus;whiteSpace=wrap;html=1;" vertex="1" parent="1">
          <mxGeometry x="430" y="200" width="80" height="80" as="geometry" />
        </mxCell>
        <mxCell id="6lRkxsmH2z13Fvhr2HeG-39" value="Sai" style="text;html=1;align=center;verticalAlign=middle;resizable=0;points=[];autosize=1;strokeColor=none;fillColor=none;" vertex="1" parent="1">
          <mxGeometry x="380" y="330" width="40" height="30" as="geometry" />
        </mxCell>
        <mxCell id="6lRkxsmH2z13Fvhr2HeG-43" value="Click" style="text;html=1;align=center;verticalAlign=middle;resizable=0;points=[];autosize=1;strokeColor=none;fillColor=none;" vertex="1" parent="1">
          <mxGeometry x="530" y="28" width="50" height="30" as="geometry" />
        </mxCell>
        <mxCell id="6lRkxsmH2z13Fvhr2HeG-44" value="Default" style="text;html=1;align=center;verticalAlign=middle;resizable=0;points=[];autosize=1;strokeColor=none;fillColor=none;" vertex="1" parent="1">
          <mxGeometry x="310" y="28" width="60" height="30" as="geometry" />
        </mxCell>
        <mxCell id="6lRkxsmH2z13Fvhr2HeG-48" value="" style="edgeStyle=orthogonalEdgeStyle;rounded=0;orthogonalLoop=1;jettySize=auto;html=1;" edge="1" parent="1" source="6lRkxsmH2z13Fvhr2HeG-45" target="6lRkxsmH2z13Fvhr2HeG-47">
          <mxGeometry relative="1" as="geometry" />
        </mxCell>
        <mxCell id="6lRkxsmH2z13Fvhr2HeG-45" value="Viết, chỉnh sửa" style="whiteSpace=wrap;html=1;" vertex="1" parent="1">
          <mxGeometry x="640" y="480" width="120" height="60" as="geometry" />
        </mxCell>
        <mxCell id="6lRkxsmH2z13Fvhr2HeG-50" value="" style="edgeStyle=orthogonalEdgeStyle;rounded=0;orthogonalLoop=1;jettySize=auto;html=1;" edge="1" parent="1" source="6lRkxsmH2z13Fvhr2HeG-47" target="6lRkxsmH2z13Fvhr2HeG-49">
          <mxGeometry relative="1" as="geometry" />
        </mxCell>
        <mxCell id="6lRkxsmH2z13Fvhr2HeG-69" style="edgeStyle=orthogonalEdgeStyle;rounded=0;orthogonalLoop=1;jettySize=auto;html=1;exitX=1;exitY=0.5;exitDx=0;exitDy=0;entryX=0.5;entryY=1;entryDx=0;entryDy=0;" edge="1" parent="1" source="6lRkxsmH2z13Fvhr2HeG-47" target="6lRkxsmH2z13Fvhr2HeG-6">
          <mxGeometry relative="1" as="geometry">
            <Array as="points">
              <mxPoint x="800" y="630" />
              <mxPoint x="800" y="1070" />
              <mxPoint x="280" y="1070" />
            </Array>
          </mxGeometry>
        </mxCell>
        <mxCell id="6lRkxsmH2z13Fvhr2HeG-47" value="Đăng" style="rhombus;whiteSpace=wrap;html=1;" vertex="1" parent="1">
          <mxGeometry x="660" y="590" width="80" height="80" as="geometry" />
        </mxCell>
        <mxCell id="6lRkxsmH2z13Fvhr2HeG-51" style="edgeStyle=orthogonalEdgeStyle;rounded=0;orthogonalLoop=1;jettySize=auto;html=1;exitX=0;exitY=0.5;exitDx=0;exitDy=0;entryX=0;entryY=0.5;entryDx=0;entryDy=0;" edge="1" parent="1" source="6lRkxsmH2z13Fvhr2HeG-49" target="6lRkxsmH2z13Fvhr2HeG-45">
          <mxGeometry relative="1" as="geometry">
            <Array as="points">
              <mxPoint x="580" y="760" />
              <mxPoint x="580" y="510" />
            </Array>
          </mxGeometry>
        </mxCell>
        <mxCell id="6lRkxsmH2z13Fvhr2HeG-59" value="" style="edgeStyle=orthogonalEdgeStyle;rounded=0;orthogonalLoop=1;jettySize=auto;html=1;" edge="1" parent="1" source="6lRkxsmH2z13Fvhr2HeG-49" target="6lRkxsmH2z13Fvhr2HeG-58">
          <mxGeometry relative="1" as="geometry" />
        </mxCell>
        <mxCell id="6lRkxsmH2z13Fvhr2HeG-49" value="Kiểm tra tính hợp lệ" style="whiteSpace=wrap;html=1;" vertex="1" parent="1">
          <mxGeometry x="640" y="730" width="120" height="60" as="geometry" />
        </mxCell>
        <mxCell id="6lRkxsmH2z13Fvhr2HeG-52" value="Sai" style="text;html=1;align=center;verticalAlign=middle;resizable=0;points=[];autosize=1;strokeColor=none;fillColor=none;" vertex="1" parent="1">
          <mxGeometry x="580" y="730" width="40" height="30" as="geometry" />
        </mxCell>
        <mxCell id="6lRkxsmH2z13Fvhr2HeG-53" value="Đúng" style="text;html=1;align=center;verticalAlign=middle;resizable=0;points=[];autosize=1;strokeColor=none;fillColor=none;" vertex="1" parent="1">
          <mxGeometry x="700" y="678" width="50" height="30" as="geometry" />
        </mxCell>
        <mxCell id="6lRkxsmH2z13Fvhr2HeG-62" value="" style="edgeStyle=orthogonalEdgeStyle;rounded=0;orthogonalLoop=1;jettySize=auto;html=1;" edge="1" parent="1" source="6lRkxsmH2z13Fvhr2HeG-58" target="6lRkxsmH2z13Fvhr2HeG-61">
          <mxGeometry relative="1" as="geometry" />
        </mxCell>
        <mxCell id="6lRkxsmH2z13Fvhr2HeG-65" value="" style="edgeStyle=orthogonalEdgeStyle;rounded=0;orthogonalLoop=1;jettySize=auto;html=1;" edge="1" parent="1" source="6lRkxsmH2z13Fvhr2HeG-58" target="6lRkxsmH2z13Fvhr2HeG-64">
          <mxGeometry relative="1" as="geometry" />
        </mxCell>
        <mxCell id="6lRkxsmH2z13Fvhr2HeG-58" value="Đăng bài" style="whiteSpace=wrap;html=1;" vertex="1" parent="1">
          <mxGeometry x="640" y="838" width="120" height="60" as="geometry" />
        </mxCell>
        <mxCell id="6lRkxsmH2z13Fvhr2HeG-60" value="Đúng" style="text;html=1;align=center;verticalAlign=middle;resizable=0;points=[];autosize=1;strokeColor=none;fillColor=none;" vertex="1" parent="1">
          <mxGeometry x="700" y="808" width="50" height="30" as="geometry" />
        </mxCell>
        <mxCell id="6lRkxsmH2z13Fvhr2HeG-67" style="edgeStyle=orthogonalEdgeStyle;rounded=0;orthogonalLoop=1;jettySize=auto;html=1;exitX=0;exitY=0.5;exitDx=0;exitDy=0;entryX=0.5;entryY=1;entryDx=0;entryDy=0;" edge="1" parent="1" source="6lRkxsmH2z13Fvhr2HeG-61" target="6lRkxsmH2z13Fvhr2HeG-6">
          <mxGeometry relative="1" as="geometry" />
        </mxCell>
        <mxCell id="6lRkxsmH2z13Fvhr2HeG-61" value="Thông báo thành công" style="ellipse;whiteSpace=wrap;html=1;" vertex="1" parent="1">
          <mxGeometry x="460" y="828" width="80" height="80" as="geometry" />
        </mxCell>
        <mxCell id="6lRkxsmH2z13Fvhr2HeG-63" value="Đúng" style="text;html=1;align=center;verticalAlign=middle;resizable=0;points=[];autosize=1;strokeColor=none;fillColor=none;" vertex="1" parent="1">
          <mxGeometry x="570" y="838" width="50" height="30" as="geometry" />
        </mxCell>
        <mxCell id="6lRkxsmH2z13Fvhr2HeG-68" style="edgeStyle=orthogonalEdgeStyle;rounded=0;orthogonalLoop=1;jettySize=auto;html=1;exitX=0;exitY=0.5;exitDx=0;exitDy=0;" edge="1" parent="1" source="6lRkxsmH2z13Fvhr2HeG-64">
          <mxGeometry relative="1" as="geometry">
            <mxPoint x="280" y="191.60009765625" as="targetPoint" />
          </mxGeometry>
        </mxCell>
        <mxCell id="6lRkxsmH2z13Fvhr2HeG-64" value="Thông báo lỗi" style="ellipse;whiteSpace=wrap;html=1;" vertex="1" parent="1">
          <mxGeometry x="660" y="960" width="80" height="80" as="geometry" />
        </mxCell>
        <mxCell id="6lRkxsmH2z13Fvhr2HeG-66" value="Sai" style="text;html=1;align=center;verticalAlign=middle;resizable=0;points=[];autosize=1;strokeColor=none;fillColor=none;" vertex="1" parent="1">
          <mxGeometry x="700" y="920" width="40" height="30" as="geometry" />
        </mxCell>
        <mxCell id="6lRkxsmH2z13Fvhr2HeG-70" value="Sai" style="text;html=1;align=center;verticalAlign=middle;resizable=0;points=[];autosize=1;strokeColor=none;fillColor=none;" vertex="1" parent="1">
          <mxGeometry x="740" y="598" width="40" height="30" as="geometry" />
        </mxCell>
      </root>
    </mxGraphModel>
  </diagram>
</mxfile>
